0
SECTION
2
HEADER
9
$INSUNITS
70
4
9
$ACADVER
1
AC1014
9
$HANDSEED
5
FFFF
0
ENDSEC
0
SECTION
2
TABLES
0
TABLE
2
VPORT
5
8
100
AcDbSymbolTable
0
ENDTAB
0
TABLE
2
LTYPE
5
5
100
AcDbSymbolTable
0
LTYPE
5
14
100
AcDbSymbolTableRecord
100
AcDbLinetypeTableRecord
2
BYBLOCK
70
0
0
LTYPE
5
15
100
AcDbSymbolTableRecord
100
AcDbLinetypeTableRecord
2
BYLAYER
70
0
0
ENDTAB
0
TABLE
2
LAYER
5
2
100
AcDbSymbolTable
70
2
0
LAYER
5
50
100
AcDbSymbolTableRecord
100
AcDbLayerTableRecord
2
0
70
0
6
CONTINUOUS
0
ENDTAB
0
TABLE
2
STYLE
5
3
100
AcDbSymbolTable
70
1
0
STYLE
5
11
100
AcDbSymbolTableRecord
100
AcDbTextStyleTableRecord
2
STANDARD
70
0
0
ENDTAB
0
TABLE
2
VIEW
5
6
100
AcDbSymbolTable
70
0
0
ENDTAB
0
TABLE
2
UCS
5
7
100
AcDbSymbolTable
70
0
0
ENDTAB
0
TABLE
2
APPID
5
9
100
AcDbSymbolTable
70
2
0
APPID
5
12
100
AcDbSymbolTableRecord
100
AcDbRegAppTableRecord
2
ACAD
70
0
0
ENDTAB
0
TABLE
2
DIMSTYLE
5
A
100
AcDbSymbolTable
70
1
0
ENDTAB
0
TABLE
2
BLOCK_RECORD
5
1
100
AcDbSymbolTable
70
1
0
BLOCK_RECORD
5
1F
100
AcDbSymbolTableRecord
100
AcDbBlockTableRecord
2
*MODEL_SPACE
0
BLOCK_RECORD
5
1B
100
AcDbSymbolTableRecord
100
AcDbBlockTableRecord
2
*PAPER_SPACE
0
ENDTAB
0
ENDSEC
0
SECTION
2
BLOCKS
0
BLOCK
5
20
100
AcDbEntity
100
AcDbBlockBegin
2
*MODEL_SPACE
0
ENDBLK
5
21
100
AcDbEntity
100
AcDbBlockEnd
0
BLOCK
5
1C
100
AcDbEntity
100
AcDbBlockBegin
2
*PAPER_SPACE
0
ENDBLK
5
1D
100
AcDbEntity
100
AcDbBlockEnd
0
ENDSEC
0
SECTION
2
ENTITIES
0
CIRCLE
5
100
100
AcDbEntity
8
0
100
AcDbCircle
10
3.4180048901046223
20
5.880851214173429
30
0
40
7.3749999999999982
210
0
220
0
230
1
0
CIRCLE
5
101
100
AcDbEntity
8
0
100
AcDbCircle
10
3.4180048901046223
20
5.880851214173429
30
0
40
6.4999999999999991
210
0
220
0
230
1
0
CIRCLE
5
102
100
AcDbEntity
8
0
100
AcDbCircle
10
-3.6124885840345744
20
0.18534378809953678
30
0
40
6.8900000000000015
210
0
220
0
230
1
0
CIRCLE
5
103
100
AcDbEntity
8
0
100
AcDbCircle
10
-3.6124885840345744
20
0.18534378809953678
30
0
40
5.780000000000002
210
0
220
0
230
1
0
CIRCLE
5
104
100
AcDbEntity
8
0
100
AcDbCircle
10
-4.1196710401115375
20
17.579408093975072
30
0
40
7.7649999999999997
210
0
220
0
230
1
0
CIRCLE
5
105
100
AcDbEntity
8
0
100
AcDbCircle
10
-4.1196710401115375
20
17.579408093975072
30
0
40
6.7500000000000018
210
0
220
0
230
1
0
LWPOLYLINE
5
106
100
AcDbEntity
8
0
100
AcDbPolyline
90
4
70
1
43
0.0
10
-15.740312280969755
20
-29.212887541682715
10
-15.740312280969771
20
40.575460267450786
10
18.259687719030239
20
40.575460267450794
10
18.259687719030232
20
-29.212887541682704
0
CIRCLE
5
107
100
AcDbEntity
8
0
100
AcDbCircle
10
-4.1196710401115375
20
17.579408093975072
30
0
40
1.6500000000000015
210
0
220
0
230
1
0
CIRCLE
5
108
100
AcDbEntity
8
0
100
AcDbCircle
10
3.4180048901046223
20
5.880851214173429
30
0
40
1.0000000000000009
210
0
220
0
230
1
0
CIRCLE
5
109
100
AcDbEntity
8
0
100
AcDbCircle
10
-3.6124885840345744
20
0.18534378809953678
30
0
40
1
210
0
220
0
230
1
0
CIRCLE
5
110
100
AcDbEntity
8
0
100
AcDbCircle
10
8.3484561179406356
20
-9.1745397325492188
30
0
40
1
210
0
220
0
230
1
0
CIRCLE
5
111
100
AcDbEntity
8
0
100
AcDbCircle
10
-8.651543882059368
20
-9.1745397325492188
30
0
40
1
210
0
220
0
230
1
0
CIRCLE
5
112
100
AcDbEntity
8
0
100
AcDbCircle
10
-3.6124885840345744
20
0.18534378809953678
30
0
40
2.5499999999999998
210
0
220
0
230
1
0
CIRCLE
5
113
100
AcDbEntity
8
0
100
AcDbCircle
10
-12.240312280969768
20
36.075460267450779
30
0
40
1.5000000000000009
210
0
220
0
230
1
0
CIRCLE
5
114
100
AcDbEntity
8
0
100
AcDbCircle
10
14.759687719030236
20
36.075460267450786
30
0
40
1.5000000000000016
210
0
220
0
230
1
0
CIRCLE
5
115
100
AcDbEntity
8
0
100
AcDbCircle
10
14.759687719030236
20
-25.712887541682704
30
0
40
1.4999999999999993
210
0
220
0
230
1
0
CIRCLE
5
116
100
AcDbEntity
8
0
100
AcDbCircle
10
-12.240312280969757
20
-25.712887541682715
30
0
40
1.4999999999999991
210
0
220
0
230
1
0
CIRCLE
5
117
100
AcDbEntity
8
0
100
AcDbCircle
10
-12.117728752261563
20
7.7755190885463517
30
0
40
1.5000000000000009
210
0
220
0
230
1
0
LINE
5
118
100
AcDbEntity
8
0
100
AcDbLine
10
0
20
0
30
0
11
0
21
3.0766719650948469
31
0
0
CIRCLE
5
119
100
AcDbEntity
8
0
100
AcDbCircle
10
-0.1515438820593662
20
-9.1745397325492188
30
0
40
3.1749999999999994
210
0
220
0
230
1
0
CIRCLE
5
120
100
AcDbEntity
8
0
100
AcDbCircle
10
14.759687719030236
20
7.7755190885463517
30
0
40
1.5000000000000009
210
0
220
0
230
1
0
LWPOLYLINE
5
121
100
AcDbEntity
8
0
100
AcDbPolyline
90
4
70
1
43
0.0
10
32.015782405199509
20
40.575460267450794
10
32.015782405199516
20
-29.212887541682704
10
66.015782405199502
20
-29.212887541682715
10
66.015782405199531
20
40.575460267450786
0
CIRCLE
5
122
100
AcDbEntity
8
0
100
AcDbCircle
10
62.393198876491311
20
7.7755190885463517
30
0
40
1.5000000000000009
210
0
220
0
230
1
0
CIRCLE
5
123
100
AcDbEntity
8
0
100
AcDbCircle
10
53.887958708264321
20
0.18534378809953678
30
0
40
1
210
0
220
0
230
1
0
CIRCLE
5
124
100
AcDbEntity
8
0
100
AcDbCircle
10
35.515782405199509
20
36.075460267450786
30
0
40
1.5000000000000016
210
0
220
0
230
1
0
CIRCLE
5
125
100
AcDbEntity
8
0
100
AcDbCircle
10
35.515782405199509
20
7.7755190885463517
30
0
40
1.5000000000000009
210
0
220
0
230
1
0
CIRCLE
5
126
100
AcDbEntity
8
0
100
AcDbCircle
10
35.515782405199509
20
-25.712887541682704
30
0
40
1.4999999999999993
210
0
220
0
230
1
0
CIRCLE
5
127
100
AcDbEntity
8
0
100
AcDbCircle
10
62.515782405199516
20
36.075460267450779
30
0
40
1.5000000000000009
210
0
220
0
230
1
0
CIRCLE
5
128
100
AcDbEntity
8
0
100
AcDbCircle
10
62.515782405199509
20
-25.712887541682715
30
0
40
1.4999999999999991
210
0
220
0
230
1
0
CIRCLE
5
129
100
AcDbEntity
8
0
100
AcDbCircle
10
46.857465234125122
20
5.880851214173429
30
0
40
1.0000000000000009
210
0
220
0
230
1
0
CIRCLE
5
130
100
AcDbEntity
8
0
100
AcDbCircle
10
54.39514116434129
20
17.579408093975072
30
0
40
2.1749999999999998
210
0
220
0
230
1
0
LINE
5
131
100
AcDbEntity
8
0
100
AcDbLine
10
-28.090420180341393
20
0.035819389661959633
30
0
11
-28.090420180341393
21
8.0640686288274743
31
0
0
LWPOLYLINE
5
132
100
AcDbEntity
8
0
100
AcDbPolyline
90
4
70
1
43
0.0
10
-40.440528079713033
20
-29.212887541682715
10
-74.440528079713019
20
-29.212887541682704
10
-74.440528079713019
20
40.575460267450794
10
-40.440528079713012
20
40.575460267450786
0
CIRCLE
5
133
100
AcDbEntity
8
0
100
AcDbCircle
10
-43.940528079713019
20
36.075460267450779
30
0
40
1.5000000000000009
210
0
220
0
230
1
0
CIRCLE
5
134
100
AcDbEntity
8
0
100
AcDbCircle
10
-70.940528079713019
20
36.075460267450786
30
0
40
1.5000000000000016
210
0
220
0
230
1
0
CIRCLE
5
135
100
AcDbEntity
8
0
100
AcDbCircle
10
-70.940528079713019
20
-25.712887541682704
30
0
40
1.4999999999999993
210
0
220
0
230
1
0
CIRCLE
5
136
100
AcDbEntity
8
0
100
AcDbCircle
10
-70.940528079713019
20
7.7755190885463517
30
0
40
1.5000000000000009
210
0
220
0
230
1
0
CIRCLE
5
137
100
AcDbEntity
8
0
100
AcDbCircle
10
-43.940528079713026
20
-25.712887541682715
30
0
40
1.4999999999999991
210
0
220
0
230
1
0
CIRCLE
5
138
100
AcDbEntity
8
0
100
AcDbCircle
10
-44.063111608421224
20
7.7755190885463517
30
0
40
1.5000000000000009
210
0
220
0
230
1
0
CIRCLE
5
139
100
AcDbEntity
8
0
100
AcDbCircle
10
-56.029296478623422
20
-9.1745397325492188
30
0
40
12.175000000000004
210
0
220
0
230
1
0
LINE
5
140
100
AcDbEntity
8
0
100
AcDbLine
10
80.612371770482412
20
0.050373331048021441
30
0
11
80.612371770482412
21
18.379917031290116
31
0
0
LWPOLYLINE
5
141
100
AcDbEntity
8
0
100
AcDbPolyline
90
4
70
1
43
0.0
10
129.20896113576532
20
40.575460267450794
10
129.20896113576529
20
-29.212887541682704
10
95.208961135765321
20
-29.212887541682715
10
95.208961135765293
20
40.575460267450786
0
CIRCLE
5
142
100
AcDbEntity
8
0
100
AcDbCircle
10
98.708961135765321
20
36.075460267450779
30
0
40
1.5000000000000009
210
0
220
0
230
1
0
CIRCLE
5
143
100
AcDbEntity
8
0
100
AcDbCircle
10
98.708961135765321
20
-25.712887541682715
30
0
40
1.4999999999999991
210
0
220
0
230
1
0
CIRCLE
5
144
100
AcDbEntity
8
0
100
AcDbCircle
10
98.831544664473512
20
7.7755190885463517
30
0
40
1.5000000000000009
210
0
220
0
230
1
0
CIRCLE
5
145
100
AcDbEntity
8
0
100
AcDbCircle
10
125.70896113576531
20
-25.712887541682704
30
0
40
1.4999999999999993
210
0
220
0
230
1
0
CIRCLE
5
146
100
AcDbEntity
8
0
100
AcDbCircle
10
125.70896113576531
20
7.7755190885463517
30
0
40
1.5000000000000009
210
0
220
0
230
1
0
CIRCLE
5
147
100
AcDbEntity
8
0
100
AcDbCircle
10
106.82960237662354
20
17.579408093975072
30
0
40
2.1749999999999998
210
0
220
0
230
1
0
CIRCLE
5
148
100
AcDbEntity
8
0
100
AcDbCircle
10
125.70896113576531
20
36.075460267450786
30
0
40
1.5000000000000016
210
0
220
0
230
1
0
LWPOLYLINE
5
149
100
AcDbEntity
8
0
100
AcDbPolyline
90
4
70
1
43
0.0
10
-73.441792551073988
20
-50.326986733397767
10
-3.653792551073991
20
-50.326986733397767
10
-3.653792551073991
20
-83.57698673339776
10
-73.441792551073988
20
-83.57698673339776
0
CIRCLE
5
150
100
AcDbEntity
8
0
100
AcDbCircle
10
-63.441792551073988
20
-66.95198673339776
30
0
40
1.4749999999999996
210
0
220
0
230
1
0
CIRCLE
5
151
100
AcDbEntity
8
0
100
AcDbCircle
10
-13.653792551073991
20
-66.95198673339776
30
0
40
1.4749999999999996
210
0
220
0
230
1
0
LINE
5
152
100
AcDbEntity
8
0
100
AcDbLine
10
0.16757591299780827
20
-50.182916973527831
30
0
11
0.16757591299780827
21
-45.661941310185227
31
0
0
LWPOLYLINE
5
153
100
AcDbEntity
8
0
100
AcDbPolyline
90
4
70
1
43
0.0
10
73.776944377069611
20
-145.32698673339777
10
73.776944377069611
20
-50.326986733397767
10
3.9889443770696076
20
-50.326986733397767
10
3.9889443770696076
20
-145.32698673339777
0
CIRCLE
5
154
100
AcDbEntity
8
0
100
AcDbCircle
10
13.988944377069608
20
-66.95198673339776
30
0
40
1.4749999999999996
210
0
220
0
230
1
0
CIRCLE
5
155
100
AcDbEntity
8
0
100
AcDbCircle
10
63.776944377069604
20
-66.95198673339776
30
0
40
1.4749999999999996
210
0
220
0
230
1
0
CIRCLE
5
156
100
AcDbEntity
8
0
100
AcDbCircle
10
23.988944377069608
20
-125.32698673339777
30
0
40
1.4749999999999934
210
0
220
0
230
1
0
CIRCLE
5
157
100
AcDbEntity
8
0
100
AcDbCircle
10
53.776944377069604
20
-125.32698673339777
30
0
40
1.4749999999999934
210
0
220
0
230
1
0
ENDSEC
0
SECTION
2
OBJECTS
0
DICTIONARY
5
C
100
AcDbDictionary
3
ACAD_GROUP
350
D
3
ACAD_MLINESTYLE
350
17
0
DICTIONARY
5
D
100
AcDbDictionary
0
DICTIONARY
5
1A
330
C
100
AcDbDictionary
0
DICTIONARY
5
17
100
AcDbDictionary
0
ENDSEC
0
EOF
