0
SECTION
2
HEADER
9
$INSUNITS
70
4
9
$ACADVER
1
AC1014
9
$HANDSEED
5
FFFF
0
ENDSEC
0
SECTION
2
TABLES
0
TABLE
2
VPORT
5
8
100
AcDbSymbolTable
0
ENDTAB
0
TABLE
2
LTYPE
5
5
100
AcDbSymbolTable
0
LTYPE
5
14
100
AcDbSymbolTableRecord
100
AcDbLinetypeTableRecord
2
BYBLOCK
70
0
0
LTYPE
5
15
100
AcDbSymbolTableRecord
100
AcDbLinetypeTableRecord
2
BYLAYER
70
0
0
ENDTAB
0
TABLE
2
LAYER
5
2
100
AcDbSymbolTable
70
2
0
LAYER
5
50
100
AcDbSymbolTableRecord
100
AcDbLayerTableRecord
2
0
70
0
6
CONTINUOUS
0
ENDTAB
0
TABLE
2
STYLE
5
3
100
AcDbSymbolTable
70
1
0
STYLE
5
11
100
AcDbSymbolTableRecord
100
AcDbTextStyleTableRecord
2
STANDARD
70
0
0
ENDTAB
0
TABLE
2
VIEW
5
6
100
AcDbSymbolTable
70
0
0
ENDTAB
0
TABLE
2
UCS
5
7
100
AcDbSymbolTable
70
0
0
ENDTAB
0
TABLE
2
APPID
5
9
100
AcDbSymbolTable
70
2
0
APPID
5
12
100
AcDbSymbolTableRecord
100
AcDbRegAppTableRecord
2
ACAD
70
0
0
ENDTAB
0
TABLE
2
DIMSTYLE
5
A
100
AcDbSymbolTable
70
1
0
ENDTAB
0
TABLE
2
BLOCK_RECORD
5
1
100
AcDbSymbolTable
70
1
0
BLOCK_RECORD
5
1F
100
AcDbSymbolTableRecord
100
AcDbBlockTableRecord
2
*MODEL_SPACE
0
BLOCK_RECORD
5
1B
100
AcDbSymbolTableRecord
100
AcDbBlockTableRecord
2
*PAPER_SPACE
0
ENDTAB
0
ENDSEC
0
SECTION
2
BLOCKS
0
BLOCK
5
20
100
AcDbEntity
100
AcDbBlockBegin
2
*MODEL_SPACE
0
ENDBLK
5
21
100
AcDbEntity
100
AcDbBlockEnd
0
BLOCK
5
1C
100
AcDbEntity
100
AcDbBlockBegin
2
*PAPER_SPACE
0
ENDBLK
5
1D
100
AcDbEntity
100
AcDbBlockEnd
0
ENDSEC
0
SECTION
2
ENTITIES
0
CIRCLE
5
100
100
AcDbEntity
8
0
100
AcDbCircle
10
0
20
0
30
0
40
1.5000000000000004
210
0
220
0
230
1
0
LINE
5
101
100
AcDbEntity
8
0
100
AcDbLine
10
141.39437318841038
20
-4.6615849267971834
30
0
11
0.15060827727944257
21
-7.4984876573089663
31
0
0
LINE
5
102
100
AcDbEntity
8
0
100
AcDbLine
10
-4.7216532303001006
20
141.46792481578024
30
0
11
-7.4985525120577554
21
0.14734389675971618
31
0
0
ARC
5
103
100
AcDbEntity
8
0
100
AcDbCircle
10
-2.9805270347595627
20
141.22536537073438
30
0
40
0.29000000000000048
210
0
220
-0
230
1
100
AcDbArc
50
11.945597961464507
51
169.91331460279048
0
LINE
5
104
100
AcDbEntity
8
0
100
AcDbLine
10
-2.4897564086014574
20
140.30672512373926
30
0
11
-2.6968071092184633
21
141.28539039760611
31
0
0
LINE
5
105
100
AcDbEntity
8
0
100
AcDbLine
10
-3.4481075549460121
20
140.25268319428
30
0
11
-3.2660447674278088
21
141.2761553730181
31
0
0
ARC
5
106
100
AcDbEntity
8
0
100
AcDbCircle
10
0
20
0
30
0
40
7.5000000000000009
210
0
220
0
230
1
100
AcDbArc
50
178.87430312366007
51
271.15063982794101
0
ARC
5
107
100
AcDbEntity
8
0
100
AcDbCircle
10
-3.8320796781895168
20
140.32098699045468
30
0
40
0.38999999999999591
210
0
220
0
230
1
100
AcDbArc
50
188.19367621604451
51
349.91331460278582
0
ARC
5
108
100
AcDbEntity
8
0
100
AcDbCircle
10
-4.7201492620122512
20
141.17792871566957
30
0
40
0.29000000000000048
210
0
220
-0
230
1
100
AcDbArc
50
12.651480314407113
51
90.297142833415023
0
LINE
5
109
100
AcDbEntity
8
0
100
AcDbLine
10
-4.2180985453023458
20
140.26540431120185
30
0
11
-4.437190355838375
21
141.24144452013493
31
0
0
ARC
5
110
100
AcDbEntity
8
0
100
AcDbCircle
10
140.3177395697208
20
-3.9492007646302607
30
0
40
0.38999999999999546
210
0
220
0
230
1
100
AcDbArc
50
95.01720562781432
51
256.73684401455097
0
LINE
5
111
100
AcDbEntity
8
0
100
AcDbLine
10
140.22826425355203
20
-4.3287981405385985
30
0
11
141.24007560611156
21
-4.5672933104717215
31
0
0
ARC
5
112
100
AcDbEntity
8
0
100
AcDbCircle
10
140.35574368143415
20
-2.2202342819845073
30
0
40
0.38999999999999196
210
0
220
0
230
1
100
AcDbArc
50
95.723087980731464
51
257.44272636749696
0
LINE
5
113
100
AcDbEntity
8
0
100
AcDbLine
10
140.27095166596854
20
-2.6009051557235847
30
0
11
141.2856244115751
21
-2.8269170549082241
31
0
0
ARC
5
114
100
AcDbEntity
8
0
100
AcDbCircle
10
141.22257393853653
20
-3.1099800123039478
30
0
40
0.29000000000000109
210
0
220
0
230
1
100
AcDbArc
50
-80.524990273823079
51
77.442726367488788
0
LINE
5
115
100
AcDbEntity
8
0
100
AcDbLine
10
140.28363216224793
20
-3.5606950571361793
30
0
11
141.27031298724023
21
-3.3960236859428998
31
0
0
ARC
5
116
100
AcDbEntity
8
0
100
AcDbCircle
10
140.3724446306058
20
-0.49093081268934913
30
0
40
0.38999999999999424
210
0
220
0
230
1
100
AcDbArc
50
96.428970333675423
51
258.14860872043892
0
LINE
5
117
100
AcDbEntity
8
0
100
AcDbLine
10
140.29234878555596
20
-0.87261740612137428
30
0
11
141.30972891741322
21
-1.0861117305233792
31
0
0
ARC
5
118
100
AcDbEntity
8
0
100
AcDbCircle
10
141.25017046852997
20
-1.3699299666651403
30
0
40
0.29000000000000148
210
0
220
0
230
1
100
AcDbArc
50
-79.819107920884036
51
78.148608720431682
0
LINE
5
119
100
AcDbEntity
8
0
100
AcDbLine
10
140.31685260432485
20
-1.8321782497916383
30
0
11
141.30142985499418
21
-1.6553638036559815
31
0
0
ARC
5
120
100
AcDbEntity
8
0
100
AcDbCircle
10
140.36783988236954
20
1.2384471699718214
30
0
40
0.38999999999999263
210
0
220
0
230
1
100
AcDbArc
50
97.134852686645203
51
258.8544910733799
0
LINE
5
121
100
AcDbEntity
8
0
100
AcDbLine
10
140.29245236466443
20
0.85580278915034114
30
0
11
141.31238546504966
21
0.65485844365049672
31
0
0
ARC
5
122
100
AcDbEntity
8
0
100
AcDbCircle
10
141.25632808008942
20
0.37032800662939624
30
0
40
0.28999999999999831
210
0
220
0
230
1
100
AcDbArc
50
-79.113225567945165
51
78.854491073374021
0
LINE
5
123
100
AcDbEntity
8
0
100
AcDbLine
10
140.32877578673865
20
-0.10338335485315119
30
0
11
141.31110002417623
21
0.085547329368892422
31
0
0
ARC
5
124
100
AcDbEntity
8
0
100
AcDbCircle
10
140.34193013563294
20
2.967637181405963
30
0
40
0.38999999999999319
210
0
220
0
230
1
100
AcDbArc
50
97.840735039527829
51
259.56037342631646
0
LINE
5
125
100
AcDbEntity
8
0
100
AcDbLine
10
140.27126238757265
20
2.5840930908712698
30
0
11
141.29359365127411
21
2.3957292235601972
31
0
0
ARC
5
126
100
AcDbEntity
8
0
100
AcDbCircle
10
141.2410458386139
20
2.1105297716241438
30
0
40
0.29000000000000298
210
0
220
0
230
1
100
AcDbArc
50
-78.407343215001688
51
79.560373426317582
0
LINE
5
127
100
AcDbEntity
8
0
100
AcDbLine
10
140.31939989979145
20
1.6254272315871812
30
0
11
141.29932202705024
21
1.8264454780397683
31
0
0
ARC
5
128
100
AcDbEntity
8
0
100
AcDbCircle
10
140.2947193229715
20
4.6963767655502382
30
0
40
0.38999999999999946
210
0
220
0
230
1
100
AcDbArc
50
98.546617392488557
51
260.26625577925734
0
LINE
5
129
100
AcDbEntity
8
0
100
AcDbLine
10
140.22878207049064
20
4.3119911795363084
30
0
11
141.25335632830388
21
4.136236380238528
31
0
0
ARC
5
130
100
AcDbEntity
8
0
100
AcDbCircle
10
141.20432606363863
20
3.850411200894837
30
0
40
0.2899999999999997
210
0
220
0
230
1
100
AcDbArc
50
-77.701460862060827
51
80.266255779259268
0
LINE
5
131
100
AcDbEntity
8
0
100
AcDbLine
10
140.28872636655393
20
3.3539911110556844
30
0
11
141.26609765127799
21
3.5670664092354269
31
0
0
ARC
5
132
100
AcDbEntity
8
0
100
AcDbCircle
10
140.22621461003141
20
6.424403534707622
30
0
40
0.38999999999999735
210
0
220
0
230
1
100
AcDbArc
50
99.252499745546316
51
260.97213813220088
0
LINE
5
133
100
AcDbEntity
8
0
100
AcDbLine
10
140.16501786107102
20
6.0392347951704224
30
0
11
141.19167960335056
21
5.8761157399090074
31
0
0
ARC
5
134
100
AcDbEntity
8
0
100
AcDbCircle
10
141.14617432848254
20
5.5897082156377564
30
0
40
0.29000000000000253
210
0
220
0
230
1
100
AcDbArc
50
-76.995578509121472
51
80.972138132192612
0
LINE
5
135
100
AcDbEntity
8
0
100
AcDbLine
10
140.2367598426469
20
5.0820459225235499
30
0
11
141.21143193964753
21
5.3071459319107177
31
0
0
ARC
5
136
100
AcDbEntity
8
0
100
AcDbCircle
10
140.13642639444231
20
8.1514552093719974
30
0
40
0.38999999999999468
210
0
220
0
230
1
100
AcDbArc
50
99.958382098338404
51
261.67802048514216
0
LINE
5
137
100
AcDbEntity
8
0
100
AcDbLine
10
140.07997943743089
20
7.7655617771343568
30
0
11
141.1085728376932
21
7.6151032240820538
31
0
0
ARC
5
138
100
AcDbEntity
8
0
100
AcDbCircle
10
141.06659945940262
20
7.3281568257515008
30
0
40
0.29000000000000131
210
0
220
0
230
1
100
AcDbArc
50
-76.289696156175737
51
81.678020485134866
0
LINE
5
139
100
AcDbEntity
8
0
100
AcDbLine
10
140.16350821553718
20
6.8093293822283272
30
0
11
141.13533318930803
21
7.0464199371953615
31
0
0
ARC
5
140
100
AcDbEntity
8
0
100
AcDbCircle
10
140.02536830423898
20
9.8772696580366972
30
0
40
0.3899999999999923
210
0
220
0
230
1
100
AcDbArc
50
100.66426445137316
51
262.38390283808332
0
LINE
5
141
100
AcDbEntity
8
0
100
AcDbLine
10
139.9736797066827
20
9.490710103915136
30
0
11
141.00404864525777
21
9.3529348896365718
31
0
0
ARC
5
142
100
AcDbEntity
8
0
100
AcDbCircle
10
140.96561353425437
20
9.0654931699051549
30
0
40
0.28999999999999837
210
0
220
0
230
1
100
AcDbArc
50
-75.583813803244226
51
82.383902838081767
0
LINE
5
143
100
AcDbEntity
8
0
100
AcDbLine
10
140.06898260334239
20
8.5355793234836579
30
0
11
141.03781295051039
21
8.7846244384801579
31
0
0
ARC
5
144
100
AcDbEntity
8
0
100
AcDbCircle
10
139.89305719579281
20
11.601584936981169
30
0
40
0.3899999999999908
210
0
220
0
230
1
100
AcDbArc
50
101.37014680424616
51
263.08978519102197
0
LINE
5
145
100
AcDbEntity
8
0
100
AcDbLine
10
139.84613480297512
20
11.214417932896033
30
0
11
140.87812289070206
21
11.089346968881589
31
0
0
ARC
5
146
100
AcDbEntity
8
0
100
AcDbCircle
10
140.84323188065812
20
10.801453555587512
30
0
40
0.28999999999999826
210
0
220
0
230
1
100
AcDbArc
50
-74.877931450297851
51
83.089785191019899
0
LINE
5
147
100
AcDbEntity
8
0
100
AcDbLine
10
139.95319735313487
20
10.260533736469208
30
0
11
140.918886024854
21
10.521495611485211
31
0
0
ARC
5
148
100
AcDbEntity
8
0
100
AcDbCircle
10
139.73951315125345
20
13.324139330028304
30
0
40
0.38999999999999413
210
0
220
0
230
1
100
AcDbArc
50
102.07602915719906
51
263.79566754396797
0
LINE
5
149
100
AcDbEntity
8
0
100
AcDbLine
10
139.6973640850444
20
12.936423640098557
30
0
11
140.73081468700823
21
12.824075909590427
31
0
0
ARC
5
150
100
AcDbEntity
8
0
100
AcDbCircle
10
140.69947307367329
20
12.535774499129847
30
0
40
0.28999999999999793
210
0
220
0
230
1
100
AcDbArc
50
-74.172049097356364
51
83.795667543965763
0
LINE
5
151
100
AcDbEntity
8
0
100
AcDbLine
10
139.81617003877597
20
11.983930808000933
30
0
11
140.77857046304038
21
12.256769834302697
31
0
0
ARC
5
152
100
AcDbEntity
8
0
100
AcDbCircle
10
139.56475947550075
20
15.04467138826797
30
0
40
0.38999999999999124
210
0
220
0
230
1
100
AcDbArc
50
102.78191151010553
51
264.50154989690503
0
LINE
5
153
100
AcDbEntity
8
0
100
AcDbLine
10
139.52739013327587
20
14.656465859891984
30
0
11
140.56214639258167
21
14.556858415002905
31
0
0
ARC
5
154
100
AcDbEntity
8
0
100
AcDbCircle
10
140.53435893297853
20
14.268192765697684
30
0
40
0.28999999999999454
210
0
220
0
230
1
100
AcDbArc
50
-73.466166744417947
51
84.501549896901523
0
LINE
5
155
100
AcDbEntity
8
0
100
AcDbLine
10
139.65792145823838
20
13.705508961266727
30
0
11
140.61688756213323
21
13.99018372740964
31
0
0
ARC
5
156
100
AcDbEntity
8
0
100
AcDbCircle
10
139.36882269260747
20
16.762919969739485
30
0
40
0.38999999999999863
210
0
220
0
230
1
100
AcDbArc
50
103.48779386310397
51
265.20743224984943
0
LINE
5
157
100
AcDbEntity
8
0
100
AcDbLine
10
139.33623874627699
20
16.374283524663205
30
0
11
140.37214360785725
21
16.287431483788286
31
0
0
ARC
5
158
100
AcDbEntity
8
0
100
AcDbCircle
10
140.34791451956022
20
15.998445409244386
30
0
40
0.29000000000000209
210
0
220
0
230
1
100
AcDbArc
50
-72.76028439147133
51
85.207432249846846
0
LINE
5
159
100
AcDbEntity
8
0
100
AcDbLine
10
139.47847563045619
20
15.425006895530069
30
0
11
140.43386186232618
21
15.721474193643427
31
0
0
ARC
5
160
100
AcDbEntity
8
0
100
AcDbCircle
10
139.15173254181349
20
18.478624279067816
30
0
40
0.38999999999999252
210
0
220
0
230
1
100
AcDbArc
50
104.1936762160816
51
265.91331460279042
0
LINE
5
161
100
AcDbEntity
8
0
100
AcDbLine
10
139.12393893696128
20
18.089615904441622
30
0
11
140.16083517141408
21
18.015532449963679
31
0
0
ARC
5
162
100
AcDbEntity
8
0
100
AcDbCircle
10
140.14016813190858
20
17.726269812421123
30
0
40
0.29000000000000048
210
0
220
0
230
1
100
AcDbArc
50
-72.054402038537631
51
85.913314602788475
0
LINE
5
163
100
AcDbEntity
8
0
100
AcDbLine
10
139.27785979167498
20
17.142163625789188
30
0
11
140.2295211432178
21
17.450378458134747
31
0
0
ARC
5
164
100
AcDbEntity
8
0
100
AcDbCircle
10
138.91352197301202
20
20.1915239070469
30
0
40
0.38999999999999196
210
0
220
0
230
1
100
AcDbArc
50
104.89955856897697
51
266.61919695573323
0
LINE
5
165
100
AcDbEntity
8
0
100
AcDbLine
10
138.89052292814506
20
19.802202646472548
30
0
11
139.92825315559804
21
19.740899022761283
31
0
0
ARC
5
166
100
AcDbEntity
8
0
100
AcDbCircle
10
139.91115130172258
20
19.451403726436766
30
0
40
0.28999999999999654
210
0
220
0
230
1
100
AcDbArc
50
-71.348519685591981
51
86.619196955728313
0
LINE
5
167
100
AcDbEntity
8
0
100
AcDbLine
10
139.05610439132144
20
18.856718522390121
30
0
11
140.00389641959558
21
19.176634108191365
31
0
0
ARC
5
168
100
AcDbEntity
8
0
100
AcDbCircle
10
138.65422714174858
20
21.901358870164561
30
0
40
0.38999999999999702
210
0
220
0
230
1
100
AcDbArc
50
105.60544092192232
51
267.32507930867024
0
LINE
5
169
100
AcDbEntity
8
0
100
AcDbLine
10
138.63602614765657
20
21.511783814733569
30
0
11
139.67443286165417
21
21.463269326438915
31
0
0
ARC
5
170
100
AcDbEntity
8
0
100
AcDbCircle
10
139.66089878912419
20
21.17358531086203
30
0
40
0.28999999999999898
210
0
220
0
230
1
100
AcDbArc
50
-70.642637332650907
51
87.325079308666162
0
LINE
5
171
100
AcDbEntity
8
0
100
AcDbLine
10
138.81324308737967
20
20.568411350584526
30
0
11
139.75702193672825
21
20.89997913312715
31
0
0
ARC
5
172
100
AcDbEntity
8
0
100
AcDbCircle
10
138.37388740373305
20
23.607869650062817
30
0
40
0.38999999999999313
210
0
220
0
230
1
100
AcDbArc
50
106.31132327485092
51
268.03096166161401
0
LINE
5
173
100
AcDbEntity
8
0
100
AcDbLine
10
138.36048722295874
20
23.218099929387634
30
0
11
139.39941281436836
21
23.182381940027483
31
0
0
ARC
5
174
100
AcDbEntity
8
0
100
AcDbCircle
10
139.38944857738232
20
22.892553173371574
30
0
40
0.2899999999999941
210
0
220
0
230
1
100
AcDbArc
50
-69.936754979713911
51
88.030961661612139
0
LINE
5
175
100
AcDbEntity
8
0
100
AcDbLine
10
138.54931274128182
20
22.276982310027815
30
0
11
139.48893516516816
21
22.62015196403005
31
0
0
ARC
5
176
100
AcDbEntity
8
0
100
AcDbCircle
10
138.07254530886647
20
25.310797232927374
30
0
40
0.38999999999998514
210
0
220
0
230
1
100
AcDbArc
50
107.01720562784193
51
268.73684401455091
0
LINE
5
177
100
AcDbEntity
8
0
100
AcDbLine
10
138.06394797528617
20
24.920892006166682
30
0
11
139.10323475622019
21
24.897975937009257
31
0
0
ARC
5
178
100
AcDbEntity
8
0
100
AcDbCircle
10
139.09684186714767
20
24.60804640941797
30
0
40
0.28999999999999254
210
0
220
0
230
1
100
AcDbArc
50
-69.230872626768772
51
88.736844014553625
0
LINE
5
179
100
AcDbEntity
8
0
100
AcDbLine
10
138.26435341231561
20
23.982172074212276
30
0
11
139.19967679506388
21
24.336891513462788
31
0
0
ARC
5
180
100
AcDbEntity
8
0
100
AcDbCircle
10
137.75024659478279
20
27.009883148800839
30
0
40
0.38999999999999591
210
0
220
0
230
1
100
AcDbArc
50
107.7230879809255
51
269.44272636749417
0
LINE
5
181
100
AcDbEntity
8
0
100
AcDbLine
10
137.74645341329787
20
26.619901595680417
30
0
11
138.78594364104731
21
26.60979092492143
31
0
0
ARC
5
182
100
AcDbEntity
8
0
100
AcDbCircle
10
138.78312307019957
20
26.319804641831883
30
0
40
0.28999999999999526
210
0
220
0
230
1
100
AcDbArc
50
-68.524990273830284
51
89.442726367497656
0
LINE
5
183
100
AcDbEntity
8
0
100
AcDbLine
10
137.958408351542
20
25.683721829826936
30
0
11
138.88929072998437
21
26.049937215090875
31
0
0
ARC
5
184
100
AcDbEntity
8
0
100
AcDbCircle
10
137.40704017990686
20
28.7048695108132
30
0
40
0.38999999999999835
210
0
220
0
230
1
100
AcDbArc
50
108.42897033370177
51
270.14860872043448
0
LINE
5
185
100
AcDbEntity
8
0
100
AcDbLine
10
137.4080517262455
20
28.314870822643613
30
0
11
138.44758762722236
21
28.317567084878345
31
0
0
ARC
5
186
100
AcDbEntity
8
0
100
AcDbCircle
10
138.44833980270494
20
28.027568060341981
30
0
40
0.2899999999999992
210
0
220
0
230
1
100
AcDbArc
50
-67.819107920883766
51
90.148608720432932
0
LINE
5
187
100
AcDbEntity
8
0
100
AcDbLine
10
137.63152399523187
20
27.381373316040651
30
0
11
138.55782408025536
21
27.7590290632312
31
0
0
ARC
5
188
100
AcDbEntity
8
0
100
AcDbCircle
10
137.04297815602948
20
30.395499054323505
30
0
40
0.38999999999999591
210
0
220
0
230
1
100
AcDbArc
50
109.13485268662581
51
270.85449107337297
0
LINE
5
189
100
AcDbEntity
8
0
100
AcDbLine
10
137.04879427665941
20
30.005542425016074
30
0
11
138.08821807034337
21
30.021045211006467
31
0
0
ARC
5
190
100
AcDbEntity
8
0
100
AcDbCircle
10
138.09254287799126
20
29.731077461008631
30
0
40
0.2900000000000007
210
0
220
0
230
1
100
AcDbArc
50
-67.113225567940049
51
90.854491073371648
0
LINE
5
191
100
AcDbEntity
8
0
100
AcDbLine
10
137.28374995782036
20
29.074868863701639
30
0
11
138.20532715580879
21
29.463907652315385
31
0
0
ARC
5
192
100
AcDbEntity
8
0
100
AcDbCircle
10
136.658115780401
20
32.081515175968001
30
0
40
0.38999999999999524
210
0
220
0
230
1
100
AcDbArc
50
109.84073503960224
51
271.56037342631942
0
LINE
5
193
100
AcDbEntity
8
0
100
AcDbLine
10
136.66873559255282
20
31.691659793050366
30
0
11
137.70788951543915
21
31.719966749787126
31
0
0
ARC
5
194
100
AcDbEntity
8
0
100
AcDbCircle
10
137.7157862988341
20
31.43007428556632
30
0
40
0.28999999999999687
210
0
220
0
230
1
100
AcDbArc
50
-66.407343215009561
51
91.560373426322286
0
LINE
5
195
100
AcDbEntity
8
0
100
AcDbLine
10
136.91513902436805
20
30.763951434443445
30
0
11
137.83185345854687
21
31.164314216262813
31
0
0
ARC
5
196
100
AcDbEntity
8
0
100
AcDbCircle
10
136.25251146734445
20
33.762661972606978
30
0
40
0.38999999999999646
210
0
220
0
230
1
100
AcDbArc
50
110.54661739251395
51
272.26625577925768
0
LINE
5
197
100
AcDbEntity
8
0
100
AcDbLine
10
136.26793335914545
20
33.37296700823962
30
0
11
137.30665968869044
21
33.414073839299355
31
0
0
ARC
5
198
100
AcDbEntity
8
0
100
AcDbCircle
10
137.31812724926041
20
33.124300660667217
30
0
40
0.29000000000000714
210
0
220
0
230
1
100
AcDbArc
50
-65.701460862060344
51
92.266255779256994
0
LINE
5
199
100
AcDbEntity
8
0
100
AcDbLine
10
136.52574714255834
20
32.448364659701689
30
0
11
137.43745967422169
21
32.859990667755739
31
0
0
ARC
5
200
100
AcDbEntity
8
0
100
AcDbCircle
10
135.82622677938926
20
35.43868428016571
30
0
40
0.39000000000000618
210
0
220
0
230
1
100
AcDbArc
50
111.25249974544208
51
272.97213813220174
0
LINE
5
201
100
AcDbEntity
8
0
100
AcDbLine
10
135.84644841010828
20
35.049208882160833
30
0
11
136.88458948866818
21
35.103109348358153
31
0
0
ARC
5
202
100
AcDbEntity
8
0
100
AcDbCircle
10
136.89962608586947
20
34.813499437021193
30
0
40
0.29000000000000292
210
0
220
0
230
1
100
AcDbArc
50
-64.995578509117038
51
92.972138132194686
0
LINE
5
203
100
AcDbEntity
8
0
100
AcDbLine
10
136.11563341420242
20
34.127852879624186
30
0
11
137.02220566383116
21
34.550679637411761
31
0
0
ARC
5
204
100
AcDbEntity
8
0
100
AcDbCircle
10
135.37932641792753
20
37.109327712363303
30
0
40
0.38999999999999541
210
0
220
0
230
1
100
AcDbArc
50
111.95838209834547
51
273.67802048513937
0
LINE
5
205
100
AcDbEntity
8
0
100
AcDbLine
10
135.40434471833007
20
36.720130995207356
30
0
11
136.4417429770904
21
36.786816915541898
31
0
0
ARC
5
206
100
AcDbEntity
8
0
100
AcDbCircle
10
136.46034632867176
20
36.497414228425939
30
0
40
0.29000000000000636
210
0
220
0
230
1
100
AcDbArc
50
-64.289696156179829
51
93.678020485137225
0
LINE
5
207
100
AcDbEntity
8
0
100
AcDbLine
10
135.68486008626724
20
35.802161181874389
30
0
11
136.58615445453364
21
36.236124512847375
31
0
0
ARC
5
208
100
AcDbEntity
8
0
100
AcDbCircle
10
134.91187821339349
20
38.774338699323252
30
0
40
0.38999999999998652
210
0
220
0
230
1
100
AcDbArc
50
112.66426445133067
51
274.38390283807746
0
LINE
5
209
100
AcDbEntity
8
0
100
AcDbLine
10
134.94168938620766
20
38.385479735204591
30
0
11
135.97818736909895
21
38.464940988102668
31
0
0
ARC
5
210
100
AcDbEntity
8
0
100
AcDbCircle
10
136.00035465144796
20
38.175789450681101
30
0
40
0.29000000000000242
210
0
220
0
230
1
100
AcDbArc
50
-63.583813803238854
51
94.383902838082037
0
LINE
5
211
100
AcDbEntity
8
0
100
AcDbLine
10
135.23349254142988
20
37.471035440322851
30
0
11
136.1293722300816
21
37.916069477626444
31
0
0
ARC
5
212
100
AcDbEntity
8
0
100
AcDbCircle
10
134.42395311496819
20
40.433464526060376
30
0
40
0.38999999999999863
210
0
220
0
230
1
100
AcDbArc
50
118.52831854969862
51
275.08978519102033
0
LINE
5
213
100
AcDbEntity
8
0
100
AcDbLine
10
134.45855263546105
20
40.045002335903263
30
0
11
135.49399302305747
21
40.137226860754168
31
0
0
ARC
5
214
100
AcDbEntity
8
0
100
AcDbCircle
10
135.51972087162912
20
39.848370360380926
30
0
40
0.28999999999999626
210
0
220
0
230
1
100
AcDbArc
50
-62.87793145029957
51
95.089785191026849
0
LINE
5
215
100
AcDbEntity
8
0
100
AcDbLine
10
134.76159928815198
20
39.134222353617588
30
0
11
135.65192832077605
21
39.590259550088028
31
0
0
ARC
5
216
100
AcDbEntity
8
0
100
AcDbCircle
10
133.91562517981106
20
42.086453370837788
30
0
40
0.39000000000001167
210
0
220
0
230
1
100
AcDbArc
50
114.0760291571716
51
275.79566754395893
0
LINE
5
217
100
AcDbEntity
8
0
100
AcDbLine
10
133.95500779647531
20
41.698446915344235
30
0
11
134.98923342987268
21
41.803420714330755
31
0
0
ARC
5
218
100
AcDbEntity
8
0
100
AcDbCircle
10
135.01851793969996
20
41.514903093579143
30
0
40
0.28999999999999826
210
0
220
0
230
1
100
AcDbArc
50
-62.172049097358901
51
95.795667543961216
0
LINE
5
219
100
AcDbEntity
8
0
100
AcDbLine
10
134.215637663959
20
40.763168443038687
30
0
11
135.15389519294393
21
41.258440622047502
31
0
0
ARC
5
220
100
AcDbEntity
8
0
100
AcDbCircle
10
133.38697156181934
20
43.73305434338814
30
0
40
0.39000000000000085
210
0
220
0
230
1
100
AcDbArc
50
114.78191151013604
51
276.50154989690697
0
LINE
5
221
100
AcDbEntity
8
0
100
AcDbLine
10
133.43113129717054
20
43.345562514088854
30
0
11
134.46398520183971
21
43.463269654311901
31
0
0
ARC
5
222
100
AcDbEntity
8
0
100
AcDbCircle
10
134.49682192812648
20
43.175134704320115
30
0
40
0.28999999999999682
210
0
220
0
230
1
100
AcDbArc
50
-61.4661667444161
51
96.501549896903668
0
LINE
5
223
100
AcDbEntity
8
0
100
AcDbLine
10
133.7565252561914
20
42.442525293775034
30
0
11
134.63534843793909
21
42.920359497364785
31
0
0
ARC
5
224
100
AcDbEntity
8
0
100
AcDbCircle
10
132.83807249991781
20
45.373017522994054
30
0
40
0.39000000000000229
210
0
220
0
230
1
100
AcDbArc
50
115.48779386306596
51
277.20743224984705
0
LINE
5
225
100
AcDbEntity
8
0
100
AcDbLine
10
132.88700265140142
20
44.986099133309885
30
0
11
133.91832806101394
21
45.11652174920674
31
0
0
ARC
5
226
100
AcDbEntity
8
0
100
AcDbCircle
10
133.95471201980942
20
44.828813203031345
30
0
40
0.2900000000000113
210
0
220
0
230
1
100
AcDbArc
50
-60.760284391476752
51
97.207432249844103
0
LINE
5
227
100
AcDbEntity
8
0
100
AcDbLine
10
133.22349702741383
20
44.087139187176881
30
0
11
134.09636676066881
21
44.575763930374691
31
0
0
ARC
5
228
100
AcDbEntity
8
0
100
AcDbCircle
10
132.26901130587999
20
47.006093996420731
30
0
40
0.39000000000000612
210
0
220
0
230
1
100
AcDbArc
50
116.1936762160918
51
277.91331460278525
0
LINE
5
229
100
AcDbEntity
8
0
100
AcDbLine
10
132.32270444688882
20
46.619807772736017
30
0
11
133.3523448271109
21
46.762926068792005
31
0
0
ARC
5
230
100
AcDbEntity
8
0
100
AcDbCircle
10
133.39227049606617
20
46.475687594770029
30
0
40
0.28999999999999393
210
0
220
0
230
1
100
AcDbArc
50
-60.054402038534967
51
97.913314602782876
0
LINE
5
231
100
AcDbEntity
8
0
100
AcDbLine
10
132.67024816685395
20
45.725061544718137
30
0
11
133.53703196764832
21
46.224402664172572
31
0
0
ARC
5
232
100
AcDbEntity
8
0
100
AcDbCircle
10
131.67987435168317
20
48.632035895696148
30
0
40
0.38999999999999202
210
0
220
0
230
1
100
AcDbArc
50
116.89955856895523
51
278.61919695572641
0
LINE
5
233
100
AcDbEntity
8
0
100
AcDbLine
10
131.73832233268465
20
48.246440468445201
30
0
11
132.76612140493583
21
48.4022327221982
31
0
0
ARC
5
234
100
AcDbEntity
8
0
100
AcDbCircle
10
132.80958272414205
20
48.115507917319277
30
0
40
0.28999999999999271
210
0
220
0
230
1
100
AcDbArc
50
-59.348519685588201
51
98.619196955723794
0
LINE
5
235
100
AcDbEntity
8
0
100
AcDbLine
10
132.09686264649591
20
47.356043762919114
30
0
11
132.95742895458406
21
47.866025468750067
31
0
0
ARC
5
236
100
AcDbEntity
8
0
100
AcDbCircle
10
131.07075105639902
20
50.250596435732163
30
0
40
0.38999999999999596
210
0
220
0
230
1
100
AcDbArc
50
117.60544092197499
51
279.32507930867268
0
LINE
5
237
100
AcDbEntity
8
0
100
AcDbLine
10
131.13394500617204
20
49.865750330500376
30
0
11
132.15974677134517
21
50.03419289583789
31
0
0
ARC
5
238
100
AcDbEntity
8
0
100
AcDbCircle
10
132.20673714425328
20
49.748025279127063
30
0
40
0.28999999999999926
210
0
220
0
230
1
100
AcDbArc
50
-58.642637332649372
51
99.325079308665977
0
LINE
5
239
100
AcDbEntity
8
0
100
AcDbLine
10
131.50342749466387
20
48.979838291674099
30
0
11
132.35764569348822
21
49.500383178974836
31
0
0
ARC
5
240
100
AcDbEntity
8
0
100
AcDbCircle
10
130.4417338726214
20
51.861529951781804
30
0
40
0.39000000000000967
210
0
220
0
230
1
100
AcDbArc
50
118.31132327476244
51
280.03096166161038
0
LINE
5
241
100
AcDbEntity
8
0
100
AcDbLine
10
130.50966419960272
20
51.477491580422637
30
0
11
131.53331296174147
21
51.658558891170792
31
0
0
ARC
5
242
100
AcDbEntity
8
0
100
AcDbCircle
10
131.58382525616349
20
51.37299189708321
30
0
40
0.2900000000000128
210
0
220
0
230
1
100
AcDbArc
50
-57.936754979707885
51
100.03096166161225
0
LINE
5
243
100
AcDbEntity
8
0
100
AcDbLine
10
130.89003278280697
20
50.59619867182144
30
0
11
131.73777321932644
21
51.12722773240904
31
0
0
ARC
5
244
100
AcDbEntity
8
0
100
AcDbCircle
10
129.79291827243401
20
53.464591936725895
30
0
40
0.38999999999999679
210
0
220
0
230
1
100
AcDbArc
50
119.01720562783956
51
280.73684401455284
0
LINE
5
245
100
AcDbEntity
8
0
100
AcDbLine
10
129.86557466617424
20
53.081419588495166
30
0
11
130.88691505610461
21
53.275084162299109
31
0
0
ARC
5
246
100
AcDbEntity
8
0
100
AcDbCircle
10
130.94094160529605
20
52.990161134127533
30
0
40
0.29000000000000259
210
0
220
0
230
1
100
AcDbArc
50
-57.230872626769411
51
100.73684401454859
0
LINE
5
247
100
AcDbEntity
8
0
100
AcDbLine
10
130.25677161183606
20
52.204879572555129
30
0
11
131.09790561620048
21
52.746312206959914
31
0
0
ARC
5
248
100
AcDbEntity
8
0
100
AcDbCircle
10
129.12440273291958
20
55.059539078184613
30
0
40
0.38999999999999974
210
0
220
0
230
1
100
AcDbArc
50
119.72308798072164
51
281.44272636749309
0
LINE
5
249
100
AcDbEntity
8
0
100
AcDbLine
10
129.20177416564795
20
54.677290910893319
30
0
11
130.22065116456014
21
54.883523353388526
31
0
0
ARC
5
250
100
AcDbEntity
8
0
100
AcDbCircle
10
130.27818376838377
20
54.599287536684741
30
0
40
0.28999999999999343
210
0
220
0
230
1
100
AcDbArc
50
-56.524990273824464
51
101.44272636748752
0
LINE
5
251
100
AcDbEntity
8
0
100
AcDbLine
10
129.60374009798312
20
53.805636828655715
30
0
11
130.43814000306818
21
54.357390858357853
31
0
0
ARC
5
252
100
AcDbEntity
8
0
100
AcDbCircle
10
128.4362887212132
20
56.646129295447054
30
0
40
0.39000000000000223
210
0
220
0
230
1
100
AcDbArc
50
120.42897033366462
51
282.14860872043653
0
LINE
5
253
100
AcDbEntity
8
0
100
AcDbLine
10
128.51836344951144
20
56.264863326634249
30
0
11
129.53462241248849
21
56.483632335907963
31
0
0
ARC
5
254
100
AcDbEntity
8
0
100
AcDbCircle
10
129.59565233865897
20
56.200126871918954
30
0
40
0.28999999999999326
210
0
220
0
230
1
100
AcDbArc
50
-55.819107920890062
51
102.14860872043498
0
LINE
5
255
100
AcDbEntity
8
0
100
AcDbLine
10
128.93103735822416
20
55.398227477556226
30
0
11
129.75857651900276
21
55.960219157455043
31
0
0
ARC
5
256
100
AcDbEntity
8
0
100
AcDbCircle
10
127.72868067910159
20
58.22412177621446
30
0
40
0.38999999999998214
210
0
220
0
230
1
100
AcDbArc
50
121.13485268664108
51
282.85449107337519
0
LINE
5
257
100
AcDbEntity
8
0
100
AcDbLine
10
127.81544624568625
20
57.843895874341335
30
0
11
128.82893292517619
21
58.075168245683564
31
0
0
ARC
5
258
100
AcDbEntity
8
0
100
AcDbCircle
10
128.8934509105853
20
57.79243616480354
30
0
40
0.28999999999999676
210
0
220
0
230
1
100
AcDbArc
50
-55.113225567948575
51
102.85449107337583
0
LINE
5
259
100
AcDbEntity
8
0
100
AcDbLine
10
128.23876549522507
20
56.982409796212764
30
0
11
129.05931830799383
21
57.55455382734042
31
0
0
ARC
5
260
100
AcDbEntity
8
0
100
AcDbCircle
10
127.00168600717078
20
59.793277013150487
30
0
40
0.39000000000000429
210
0
220
0
230
1
100
AcDbArc
50
121.840735039579
51
283.56037342631555
0
LINE
5
261
100
AcDbEntity
8
0
100
AcDbLine
10
127.0931292427841
20
59.414148888817095
30
0
11
128.10368981201148
21
59.657889519760445
31
0
0
ARC
5
262
100
AcDbEntity
8
0
100
AcDbCircle
10
128.17168606413421
20
59.375973734999704
30
0
40
0.28999999999999354
210
0
220
0
230
1
100
AcDbArc
50
-54.407343215002065
51
103.56037342631406
0
LINE
5
263
100
AcDbEntity
8
0
100
AcDbLine
10
127.52702958185041
20
58.557943337796978
30
0
11
128.34047150329201
21
59.140152880263948
31
0
0
ARC
5
264
100
AcDbEntity
8
0
100
AcDbCircle
10
126.25541504850516
20
61.353356840233658
30
0
40
0.39000000000000268
210
0
220
0
230
1
100
AcDbArc
50
122.54661739252323
51
284.26625577925682
0
LINE
5
265
100
AcDbEntity
8
0
100
AcDbLine
10
126.35152207391386
20
60.975384037419637
30
0
11
127.35900315022754
21
61.231555933067114
31
0
0
ARC
5
266
100
AcDbEntity
8
0
100
AcDbCircle
10
127.43046734860837
20
60.950499233538736
30
0
40
0.29000000000000892
210
0
220
0
230
1
100
AcDbArc
50
-53.701460862061197
51
104.26625577925861
0
LINE
5
267
100
AcDbEntity
8
0
100
AcDbLine
10
126.79593764521401
20
60.124588968190011
30
0
11
127.60214521130024
21
60.716775654365485
31
0
0
ARC
5
268
100
AcDbEntity
8
0
100
AcDbCircle
10
125.48998107193941
20
62.904124468906105
30
0
40
0.38999999999997825
210
0
220
0
230
1
100
AcDbArc
50
123.25249974544714
51
284.97213813220264
0
LINE
5
269
100
AcDbEntity
8
0
100
AcDbLine
10
125.59073730004127
20
62.527364356236667
30
0
11
126.59498596819488
21
62.795928634876773
31
0
0
ARC
5
270
100
AcDbEntity
8
0
100
AcDbCircle
10
126.66990726601419
20
62.515773679302065
30
0
40
0.29000000000000914
210
0
220
0
230
1
100
AcDbArc
50
-52.995578509121756
51
104.97213813219994
0
LINE
5
271
100
AcDbEntity
8
0
100
AcDbLine
10
126.0456006502819
20
61.682108902277704
30
0
11
126.84445149501354
21
62.284182850202484
31
0
0
ARC
5
272
100
AcDbEntity
8
0
100
AcDbCircle
10
124.70550025486679
20
64.445344524013265
30
0
40
0.39000000000000862
210
0
220
0
230
1
100
AcDbArc
50
123.95838209838915
51
285.67802048513965
0
LINE
5
273
100
AcDbEntity
8
0
100
AcDbLine
10
124.81089039290458
20
64.069854286051793
30
0
11
125.81175422826593
21
64.350770185060014
31
0
0
ARC
5
274
100
AcDbEntity
8
0
100
AcDbCircle
10
125.89012125398634
20
64.071559495293769
30
0
40
0.29000000000000004
210
0
220
0
230
1
100
AcDbArc
50
-52.28969615617946
51
105.6780204851389
0
LINE
5
275
100
AcDbEntity
8
0
100
AcDbLine
10
125.27613248303096
20
63.230266740042254
30
0
11
126.06750535701018
21
63.842136567070746
31
0
0
ARC
5
276
100
AcDbEntity
8
0
100
AcDbCircle
10
123.90209166560545
20
65.976783079529199
30
0
40
0.38999999999999369
210
0
220
0
230
1
100
AcDbArc
50
124.66426445129643
51
286.38390283808116
0
LINE
5
277
100
AcDbEntity
8
0
100
AcDbLine
10
124.01209971748827
20
65.602619708097748
30
0
11
125.00942680917426
21
65.895844590123431
31
0
0
ARC
5
278
100
AcDbEntity
8
0
100
AcDbCircle
10
125.09122766826661
20
65.617620544700046
30
0
40
0.28999999999999443
210
0
220
0
230
1
100
AcDbArc
50
-51.583813803241227
51
106.38390283808197
0
LINE
5
279
100
AcDbEntity
8
0
100
AcDbLine
10
124.48764993316273
20
64.768827502442491
30
0
11
125.27142472199651
21
65.390400339112915
31
0
0
ARC
5
280
100
AcDbEntity
8
0
100
AcDbCircle
10
123.07987724532663
20
67.498207694061591
30
0
40
0.39000000000000284
210
0
220
0
230
1
100
AcDbArc
50
125.37014680424403
51
287.08978519102311
0
LINE
5
281
100
AcDbEntity
8
0
100
AcDbLine
10
123.19448651405762
20
67.125427979590768
30
0
11
124.18812548799131
21
67.430917339028667
31
0
0
ARC
5
282
100
AcDbEntity
8
0
100
AcDbCircle
10
124.27334776473998
20
67.15372216672985
30
0
40
0.29000000000001575
210
0
220
0
230
1
100
AcDbArc
50
-50.877931450294561
51
107.08978519102004
0
LINE
5
283
100
AcDbEntity
8
0
100
AcDbLine
10
123.6802726763778
20
66.297557667079417
30
0
11
124.45633041890856
21
66.92873917120923
31
0
0
ARC
5
284
100
AcDbEntity
8
0
100
AcDbCircle
10
122.23898178954619
20
69.009387446131896
30
0
40
0.38999999999999957
210
0
220
0
230
1
100
AcDbArc
50
126.07602915747911
51
287.79566754396524
0
LINE
5
285
100
AcDbEntity
8
0
100
AcDbLine
10
122.35817487975686
20
68.638047969041153
30
0
11
123.347974921643
21
68.95575543878644
31
0
0
ARC
5
286
100
AcDbEntity
8
0
100
AcDbCircle
10
123.43660568103041
20
68.679631212231783
30
0
40
0.29000000000000486
210
0
220
0
230
1
100
AcDbArc
50
-50.172049097356137
51
107.79566754396336
0
LINE
5
287
100
AcDbEntity
8
0
100
AcDbLine
10
122.85412325621037
20
67.816225203639448
30
0
11
123.6223461625724
21
68.45691957464507
31
0
0
ARC
5
288
100
AcDbEntity
8
0
100
AcDbCircle
10
121.37953292918314
20
70.51009296922453
30
0
40
0.3899999999999918
210
0
220
0
230
1
100
AcDbArc
50
126.78191151016179
51
288.50154989690844
0
LINE
5
289
100
AcDbEntity
8
0
100
AcDbLine
10
121.50329174977365
20
70.140250091334408
30
0
11
122.48910262798923
21
70.470127449820296
31
0
0
ARC
5
290
100
AcDbEntity
8
0
100
AcDbCircle
10
122.58112841765907
20
70.195116079081487
30
0
40
0.28999999999999621
210
0
220
0
230
1
100
AcDbArc
50
-49.466166744414252
51
108.50154989690482
0
LINE
5
291
100
AcDbEntity
8
0
100
AcDbLine
10
122.00932706542838
20
69.324599609111658
30
0
11
122.76959853492684
21
69.974709602549893
31
0
0
ARC
5
292
100
AcDbEntity
8
0
100
AcDbCircle
10
120.5016611111884
20
72.000096486599602
30
0
40
0.39000000000000595
210
0
220
0
230
1
100
AcDbArc
50
127.48779386308367
51
289.20743224984568
0
LINE
5
293
100
AcDbEntity
8
0
100
AcDbLine
10
120.62996687807333
20
71.631806342577178
30
0
11
121.61163896646961
21
71.97380352109397
31
0
0
ARC
5
294
100
AcDbEntity
8
0
100
AcDbCircle
10
121.70704581876869
20
71.699946747333698
30
0
40
0.28999999999999243
210
0
220
0
230
1
100
AcDbArc
50
-48.760284391473128
51
109.20743224984959
0
LINE
5
295
100
AcDbEntity
8
0
100
AcDbLine
10
121.14601232700812
20
70.822451942778684
30
0
11
121.89821696581113
21
71.481878885101608
31
0
0
ARC
5
296
100
AcDbEntity
8
0
100
AcDbCircle
10
119.60549957874471
20
73.479171845865579
30
0
40
0.38999999999998713
210
0
220
0
230
1
100
AcDbArc
50
128.19367621603101
51
289.91331460278701
0
LINE
5
297
100
AcDbEntity
8
0
100
AcDbLine
10
119.73833281770428
20
73.112490334704319
30
0
11
120.7157171183172
21
73.466555424998788
31
0
0
ARC
5
298
100
AcDbEntity
8
0
100
AcDbCircle
10
120.81449055241532
20
73.193894814135291
30
0
40
0.29000000000000292
210
0
220
0
230
1
100
AcDbArc
50
-48.054402038533119
51
109.91331460278437
0
LINE
5
299
100
AcDbEntity
8
0
100
AcDbLine
10
120.26431007465818
20
72.309554860953966
30
0
11
121.00833371331964
21
72.978198664492737
31
0
0
ARC
5
300
100
AcDbEntity
8
0
100
AcDbCircle
10
118.69118435104372
20
74.947094553304083
30
0
40
0.38999999999998985
210
0
220
0
230
1
100
AcDbArc
50
128.89955856900815
51
290.6191969557272
0
LINE
5
301
100
AcDbEntity
8
0
100
AcDbLine
10
118.8285249006794
20
74.582077329839535
30
0
11
119.80147306634424
21
74.948156591993609
31
0
0
ARC
5
302
100
AcDbEntity
8
0
100
AcDbCircle
10
119.9035980904323
20
74.676733528391765
30
0
40
0.29000000000000437
210
0
220
0
230
1
100
AcDbArc
50
-47.348519685590773
51
110.61919695572401
0
LINE
5
303
100
AcDbEntity
8
0
100
AcDbLine
10
119.36435413294502
20
73.785682651499002
30
0
11
120.10008384372807
21
74.463441829650804
31
0
0
ARC
5
304
100
AcDbEntity
8
0
100
AcDbCircle
10
117.75885420264063
20
76.403641807943728
30
0
40
0.38999999999997698
210
0
220
0
230
1
100
AcDbArc
50
129.6054409219239
51
291.32507930867149
0
LINE
5
305
100
AcDbEntity
8
0
100
AcDbLine
10
117.90068121743538
20
76.040344274406252
30
0
11
118.86904557430299
21
76.418382144993586
31
0
0
ARC
5
306
100
AcDbEntity
8
0
100
AcDbCircle
10
118.9745066878683
20
76.148237825183656
30
0
40
0.28999999999999704
210
0
220
0
230
1
100
AcDbArc
50
-46.642637332651589
51
111.32507930866893
0
LINE
5
307
100
AcDbEntity
8
0
100
AcDbLine
10
118.44628109697474
20
75.250611268076796
30
0
11
119.17360521099297
21
75.937382950709363
31
0
0
ARC
5
308
100
AcDbEntity
8
0
100
AcDbCircle
10
116.80865064239136
20
77.84859253537671
30
0
40
0.38999999999999008
210
0
220
0
230
1
100
AcDbArc
50
130.31132327484522
51
292.03096166161293
0
LINE
5
309
100
AcDbEntity
8
0
100
AcDbLine
10
116.9549425958734
20
77.487069832982513
30
0
11
117.91857616582411
21
77.877008933501912
31
0
0
ARC
5
310
100
AcDbEntity
8
0
100
AcDbCircle
10
118.02735736200303
20
77.608184359926739
30
0
40
0.29000000000001269
210
0
220
0
230
1
100
AcDbArc
50
-45.936754979710003
51
112.03096166160641
0
LINE
5
311
100
AcDbEntity
8
0
100
AcDbLine
10
117.51023031166238
20
76.704118364158703
30
0
11
118.22903843582853
21
77.399798313223513
31
0
0
ARC
5
312
100
AcDbEntity
8
0
100
AcDbCircle
10
115.84071789197397
20
79.281727421313448
30
0
40
0.38999999999999757
210
0
220
0
230
1
100
AcDbArc
50
131.01720562780008
51
292.73684401455478
0
LINE
5
313
100
AcDbEntity
8
0
100
AcDbLine
10
115.99145257998423
20
78.922034421895262
30
0
11
116.95020910293607
21
79.323815567479627
31
0
0
ARC
5
314
100
AcDbEntity
8
0
100
AcDbCircle
10
117.06229387094368
20
79.05635154227123
30
0
40
0.29000000000000697
210
0
220
0
230
1
100
AcDbArc
50
-45.230872626767201
51
112.73684401455021
0
LINE
5
315
100
AcDbEntity
8
0
100
AcDbLine
10
116.55634385058084
20
78.145983326771258
30
0
11
117.26652688436292
21
78.850465952125404
31
0
0
ARC
5
316
100
AcDbEntity
8
0
100
AcDbCircle
10
114.85520286399904
20
80.702828944870149
30
0
40
0.38999999999997587
210
0
220
0
230
1
100
AcDbArc
50
131.72308798078473
51
293.44272636749514
0
LINE
5
317
100
AcDbEntity
8
0
100
AcDbLine
10
115.01035740806117
20
80.345020242548827
30
0
11
115.96409136416932
21
80.75858245094814
31
0
0
ARC
5
318
100
AcDbEntity
8
0
100
AcDbCircle
10
116.07946269180523
20
80.492519569734839
30
0
40
0.29000000000000825
210
0
220
0
230
1
100
AcDbArc
50
-44.5249902738271
51
113.44272636748909
0
LINE
5
319
100
AcDbEntity
8
0
100
AcDbLine
10
115.58476649439794
20
79.5759873099814
30
0
11
116.28621664637835
21
80.289165685413977
31
0
0
ARC
5
320
100
AcDbEntity
8
0
100
AcDbCircle
10
113.8522551397112
20
82.111681411583874
30
0
40
0.39000000000001378
210
0
220
0
230
1
100
AcDbArc
50
132.42897033365685
51
294.14860872043539
0
LINE
5
321
100
AcDbEntity
8
0
100
AcDbLine
10
114.01180599050414
20
81.75581131448206
30
0
11
114.96037262224775
21
82.18109181531932
31
0
0
ARC
5
322
100
AcDbEntity
8
0
100
AcDbCircle
10
115.07901299847838
20
81.916470461064137
30
0
40
0.28999999999999643
210
0
220
0
230
1
100
AcDbArc
50
-43.819107920885827
51
114.14860872043316
0
LINE
5
323
100
AcDbEntity
8
0
100
AcDbLine
10
114.59564570890171
20
80.993913268113019
30
0
11
115.28825651313761
21
81.715679147574122
31
0
0
ARC
5
324
100
AcDbEntity
8
0
100
AcDbCircle
10
112.83202694628571
20
83.508070986150798
30
0
40
0.39000000000000701
210
0
220
0
230
1
100
AcDbArc
50
133.13485268664121
51
294.85449107337632
0
LINE
5
325
100
AcDbEntity
8
0
100
AcDbLine
10
112.99594988721796
20
83.154193508150129
30
0
11
113.93920522137151
21
83.5911277524486
31
0
0
ARC
5
326
100
AcDbEntity
8
0
100
AcDbCircle
10
114.06109663898781
20
83.327988089319888
30
0
40
0.29000000000000242
210
0
220
0
230
1
100
AcDbArc
50
-43.113225567945364
51
114.85449107337672
0
LINE
5
327
100
AcDbEntity
8
0
100
AcDbLine
10
113.5891316226185
20
82.399545988690491
30
0
11
114.27279795480058
21
83.129789822720142
31
0
0
ARC
5
328
100
AcDbEntity
8
0
100
AcDbCircle
10
111.79467313372341
20
84.891785724882055
30
0
40
0.38999999999999363
210
0
220
0
230
1
100
AcDbArc
50
133.84073503959203
51
295.5603734263176
0
LINE
5
329
100
AcDbEntity
8
0
100
AcDbLine
10
111.96294328460866
20
84.539954577424851
30
0
11
112.90074415409418
21
84.988476247405231
31
0
0
ARC
5
330
100
AcDbEntity
8
0
100
AcDbCircle
10
113.02586811244474
20
84.726858214680647
30
0
40
0.29000000000001003
210
0
220
0
230
1
100
AcDbArc
50
-42.407343215004843
51
115.56037342631558
0
LINE
5
331
100
AcDbEntity
8
0
100
AcDbLine
10
112.56537700402407
20
83.79267212510122
30
0
11
113.23999509743395
21
84.531283077458568
31
0
0
ARC
5
332
100
AcDbEntity
8
0
100
AcDbCircle
10
110.74035115134777
20
86.262615607872291
30
0
40
0.39000000000000767
210
0
220
0
230
1
100
AcDbArc
50
139.70478913793087
51
296.26625577925989
0
LINE
5
333
100
AcDbEntity
8
0
100
AcDbLine
10
110.91294297218116
20
85.912884191809326
30
0
11
111.84514703779804
21
86.3729252109556
31
0
0
ARC
5
334
100
AcDbEntity
8
0
100
AcDbCircle
10
111.97348454559723
20
86.112868516960063
30
0
40
0.28999999999998088
210
0
220
0
230
1
100
AcDbArc
50
-41.701460862062852
51
116.26625577926015
0
LINE
5
335
100
AcDbEntity
8
0
100
AcDbLine
10
111.52453723836003
20
85.173080228980908
30
0
11
112.19000469961826
21
85.91994619346508
31
0
0
ARC
5
336
100
AcDbEntity
8
0
100
AcDbCircle
10
109.66922102390713
20
87.620352570876761
30
0
40
0.38999999999997459
210
0
220
0
230
1
100
AcDbArc
50
135.25249974543482
51
296.9721381322002
0
LINE
5
337
100
AcDbEntity
8
0
100
AcDbLine
10
109.84610831874173
20
87.272773968362017
30
0
11
110.772574090771
21
87.74426451175394
31
0
0
ARC
5
338
100
AcDbEntity
8
0
100
AcDbCircle
10
110.90410566898134
20
87.485808627832739
30
0
40
0.28999999999998977
210
0
220
0
230
1
100
AcDbArc
50
-40.995578509122957
51
116.97213813220169
0
LINE
5
339
100
AcDbEntity
8
0
100
AcDbLine
10
110.47366734642439
20
86.548496158651304
30
0
11
111.12298612865494
21
87.295568399770787
31
0
0
ARC
5
340
100
AcDbEntity
8
0
100
AcDbCircle
10
108.58144532728629
20
88.964790536890987
30
0
40
0.38999999999999585
210
0
220
0
230
1
100
AcDbArc
50
135.95838209838954
51
297.67802048514227
0
LINE
5
341
100
AcDbEntity
8
0
100
AcDbLine
10
108.76260124820911
20
88.619417503324968
30
0
11
109.68318810788864
21
89.102286008236149
31
0
0
ARC
5
342
100
AcDbEntity
8
0
100
AcDbCircle
10
109.8178937926774
20
88.845470162763974
30
0
40
0.28999999999998965
210
0
220
0
230
1
100
AcDbArc
50
-40.289696156180966
51
117.67802048514041
0
LINE
5
343
100
AcDbEntity
8
0
100
AcDbLine
10
109.39223674870702
20
87.894906229187569
30
0
11
110.03910133637768
21
88.657940904753175
31
0
0
ARC
5
344
100
AcDbEntity
8
0
100
AcDbCircle
10
107.47718916383056
20
90.295725447429277
30
0
40
0.3899999999999938
210
0
220
0
230
1
100
AcDbArc
50
136.66426445128846
51
298.38390283808235
0
LINE
5
345
100
AcDbEntity
8
0
100
AcDbLine
10
107.66258621503752
20
89.952610403451672
30
0
11
108.57715443590519
21
90.446783580211317
31
0
0
ARC
5
346
100
AcDbEntity
8
0
100
AcDbCircle
10
108.71501378167446
20
90.191646752638221
30
0
40
0.28999999999999698
210
0
220
0
230
1
100
AcDbArc
50
-39.583813803235266
51
118.38390283808042
0
LINE
5
347
100
AcDbEntity
8
0
100
AcDbLine
10
108.3010996647964
20
89.235911007389063
30
0
11
108.93851483457127
21
90.006856927826306
31
0
0
ARC
5
348
100
AcDbEntity
8
0
100
AcDbCircle
10
106.3566201372869
20
91.612955293496583
30
0
40
0.39000000000000234
210
0
220
0
230
1
100
AcDbArc
50
137.37014680426248
51
299.08978519102351
0
LINE
5
349
100
AcDbEntity
8
0
100
AcDbLine
10
106.54623017925616
20
91.272150317029968
30
0
11
107.45464094835746
21
91.777553160146837
31
0
0
ARC
5
350
100
AcDbEntity
8
0
100
AcDbCircle
10
107.59563303084741
20
91.524134075081918
30
0
40
0.29000000000001197
210
0
220
0
230
1
100
AcDbArc
50
-38.877931450297751
51
119.08978519102025
0
LINE
5
351
100
AcDbEntity
8
0
100
AcDbLine
10
107.19352466485142
20
90.563371579512136
30
0
11
107.82139367000224
21
91.342111730826019
31
0
0
ARC
5
352
100
AcDbEntity
8
0
100
AcDbCircle
10
105.21990832736475
20
92.916280146249392
30
0
40
0.38999999999997303
210
0
220
0
230
1
100
AcDbArc
50
138.07602915723575
51
299.79566754396694
0
LINE
5
353
100
AcDbEntity
8
0
100
AcDbLine
10
105.41370258112769
20
92.577836964594837
30
0
11
106.31581802008469
21
93.094392764141446
31
0
0
ARC
5
354
100
AcDbEntity
8
0
100
AcDbCircle
10
106.45992143954942
20
92.842729885475208
30
0
40
0.29000000000000353
210
0
220
0
230
1
100
AcDbArc
50
-38.172049097358361
51
119.7956675439593
0
LINE
5
355
100
AcDbEntity
8
0
100
AcDbLine
10
106.06967985635067
20
91.877086463895395
30
0
11
106.68790739906429
21
92.663502649084961
31
0
0
ARC
5
356
100
AcDbEntity
8
0
100
AcDbCircle
10
104.06722626392165
20
94.205502187340869
30
0
40
0.38999999999999047
210
0
220
0
230
1
100
AcDbArc
50
138.7819115101467
51
300.50154989690498
0
LINE
5
357
100
AcDbEntity
8
0
100
AcDbLine
10
104.26517531543092
20
93.869472169326741
30
0
11
105.16085850136947
21
94.397102522582458
31
0
0
ARC
5
358
100
AcDbEntity
8
0
100
AcDbCircle
10
105.30805138582508
20
94.14723404764888
30
0
40
0.29000000000000725
210
0
220
0
230
1
100
AcDbArc
50
-37.466166744414437
51
120.50154989690469
0
LINE
5
359
100
AcDbEntity
8
0
100
AcDbLine
10
104.92973581620141
20
93.176856265195752
30
0
11
105.53822806204344
21
93.970829122193066
31
0
0
ARC
5
360
100
AcDbEntity
8
0
100
AcDbCircle
10
102.89874890077638
20
95.480425738945684
30
0
40
0.39000000000000568
210
0
220
0
230
1
100
AcDbArc
50
139.48779386306103
51
301.20743224984375
0
LINE
5
361
100
AcDbEntity
8
0
100
AcDbLine
10
103.1008227053704
20
95.146859887130944
30
0
11
103.98993769170227
21
95.685484710481944
31
0
0
ARC
5
362
100
AcDbEntity
8
0
100
AcDbCircle
10
104.14019770024655
20
95.437448564260734
30
0
40
0.2899999999999836
210
0
220
0
230
1
100
AcDbArc
50
-36.760284391471885
51
121.20743224984557
0
LINE
5
363
100
AcDbEntity
8
0
100
AcDbLine
10
103.77386556484856
20
94.462483704651632
30
0
11
104.37253015700533
21
95.263892724438435
31
0
0
ARC
5
364
100
AcDbEntity
8
0
100
AcDbCircle
10
101.71465358915478
20
96.740857293459953
30
0
40
0.38999999999999596
210
0
220
0
230
1
100
AcDbArc
50
140.19367621602552
51
301.91331460279264
0
LINE
5
365
100
AcDbEntity
8
0
100
AcDbLine
10
101.92082147611796
20
96.40980623639301
30
0
11
102.80323331317467
21
96.959343777487291
31
0
0
ARC
5
366
100
AcDbEntity
8
0
100
AcDbCircle
10
102.95653763937804
20
96.713177606847779
30
0
40
0.29000000000001142
210
0
220
0
230
1
100
AcDbArc
50
-36.054402038534832
51
121.91331460278933
0
LINE
5
367
100
AcDbEntity
8
0
100
AcDbLine
10
102.60224454001305
20
95.733773650025157
30
0
11
103.19099061331032
21
96.542497194924465
31
0
0
ARC
5
368
100
AcDbEntity
8
0
100
AcDbCircle
10
100.51512005077134
20
97.986605542871871
30
0
40
0.38999999999999246
210
0
220
0
230
1
100
AcDbArc
50
140.89955856896827
51
302.61919695573118
0
LINE
5
369
100
AcDbEntity
8
0
100
AcDbLine
10
100.72535072798908
20
97.658119527406129
30
0
11
101.60092548350471
21
98.218486377561931
31
0
0
ARC
5
370
100
AcDbEntity
8
0
100
AcDbCircle
10
101.75725085887174
20
97.974227545548928
30
0
40
0.28999999999998549
210
0
220
0
230
1
100
AcDbArc
50
-35.348519685591114
51
122.61919695572914
0
LINE
5
371
100
AcDbEntity
8
0
100
AcDbLine
10
101.41505057006478
20
96.990533145220098
30
0
11
101.99378876475897
21
97.806448467358365
31
0
0
ARC
5
372
100
AcDbEntity
8
0
100
AcDbCircle
10
99.300330350551022
20
99.217481407798189
30
0
40
0.38999999999997231
210
0
220
0
230
1
100
AcDbArc
50
141.60544092196432
51
303.32507930867018
0
LINE
5
373
100
AcDbEntity
8
0
100
AcDbLine
10
99.514591909259423
20
98.891610291465611
30
0
11
100.38319668869866
21
99.462721398331126
31
0
0
ARC
5
374
100
AcDbEntity
8
0
100
AcDbCircle
10
100.54251938619977
20
99.220406978494054
30
0
40
0.29000000000000326
210
0
220
0
230
1
100
AcDbArc
50
-34.642637332650807
51
123.32507930866598
0
LINE
5
375
100
AcDbEntity
8
0
100
AcDbLine
10
100.2124638470322
20
98.232571439569369
30
0
11
100.78110632237295
21
99.05555469950616
31
0
0
ARC
5
376
100
AcDbEntity
8
0
100
AcDbCircle
10
98.070468868995491
20
100.43329806618286
30
0
40
0.38999999999997714
210
0
220
0
230
1
100
AcDbArc
50
142.31132327483033
51
304.03096166161265
0
LINE
5
377
100
AcDbEntity
8
0
100
AcDbLine
10
98.288728788624411
20
100.11009130962664
30
0
11
99.150231755353275
21
100.6918599900892
31
0
0
ARC
5
378
100
AcDbEntity
8
0
100
AcDbCircle
10
99.312527593026061
20
100.45152676085509
30
0
40
0.29000000000000087
210
0
220
0
230
1
100
AcDbArc
50
-33.936754979709583
51
124.03096166161259
0
LINE
5
379
100
AcDbEntity
8
0
100
AcDbLine
10
98.994666899251612
20
99.459700016785433
30
0
11
99.553127346814776
21
100.28962630231094
31
0
0
ARC
5
380
100
AcDbEntity
8
0
100
AcDbCircle
10
96.825722274198029
20
101.63387098165265
30
0
40
0.39000000000000856
210
0
220
0
230
1
100
AcDbArc
50
143.01720562780079
51
304.73684401455375
0
LINE
5
381
100
AcDbEntity
8
0
100
AcDbLine
10
97.047947427306966
20
101.3133776411201
30
0
11
97.902217822603035
21
101.90571559446299
31
0
0
ARC
5
382
100
AcDbEntity
8
0
100
AcDbCircle
10
98.067462167222487
20
101.66740003355417
30
0
40
0.28999999999999276
210
0
220
0
230
1
100
AcDbArc
50
-33.230872626765205
51
124.73684401455198
0
LINE
5
383
100
AcDbEntity
8
0
100
AcDbLine
10
97.761844563664795
20
100.67173262357571
30
0
11
98.310038220451389
21
101.50847596866818
31
0
0
ARC
5
384
100
AcDbEntity
8
0
100
AcDbCircle
10
95.566279493510891
20
102.8190179315262
30
0
40
0.38999999999998813
210
0
220
0
230
1
100
AcDbArc
50
143.72308798095321
51
305.44272636749599
0
LINE
5
385
100
AcDbEntity
8
0
100
AcDbLine
10
95.792436150817139
20
102.50128665142296
30
0
11
96.639344313716066
21
103.10410397272767
31
0
0
ARC
5
386
100
AcDbEntity
8
0
100
AcDbCircle
10
96.807512084533499
20
102.86784225162522
30
0
40
0.2900000000000128
210
0
220
0
230
1
100
AcDbArc
50
-32.524990273824535
51
125.4427263674863
0
LINE
5
387
100
AcDbEntity
8
0
100
AcDbLine
10
96.514183957761759
20
101.86848529790821
30
0
11
97.05202761906493
21
102.71191870185544
31
0
0
ARC
5
388
100
AcDbEntity
8
0
100
AcDbCircle
10
94.292331684869993
20
103.98855903447171
30
0
40
0.38999999999998647
210
0
220
0
230
1
100
AcDbArc
50
144.42897033367075
51
306.14860872043442
0
LINE
5
389
100
AcDbEntity
8
0
100
AcDbLine
10
94.522385520368047
20
103.67363803997844
30
0
11
95.361802907343332
21
104.2868432337704
31
0
0
ARC
5
390
100
AcDbEntity
8
0
100
AcDbCircle
10
95.532868579893147
20
104.05267121222414
30
0
40
0.29000000000000986
210
0
220
0
230
1
100
AcDbArc
50
-31.819107920888552
51
126.14860872043309
0
LINE
5
391
100
AcDbEntity
8
0
100
AcDbLine
10
95.251874451182488
20
103.04977639693639
30
0
11
95.779286483215429
21
103.89977184361112
31
0
0
ARC
5
392
100
AcDbEntity
8
0
100
AcDbCircle
10
93.004072207781334
20
105.14231677780901
30
0
40
0.38999999999998847
210
0
220
0
230
1
100
AcDbArc
50
145.13485268659841
51
306.85449107337706
0
LINE
5
393
100
AcDbEntity
8
0
100
AcDbLine
10
93.237988303952903
20
104.83025386756196
30
0
11
94.069787508426288
21
105.45375386169768
31
0
0
ARC
5
394
100
AcDbEntity
8
0
100
AcDbCircle
10
94.243725118400022
20
105.22170708228319
30
0
40
0.28999999999998927
210
0
220
0
230
1
100
AcDbArc
50
-31.113225567943712
51
126.85449107337567
0
LINE
5
395
100
AcDbEntity
8
0
100
AcDbLine
10
93.975107636976304
20
104.21542662457205
30
0
11
94.492007989260358
21
105.07185510185805
31
0
0
ARC
5
396
100
AcDbEntity
8
0
100
AcDbCircle
10
91.701696593972429
20
106.2801160444529
30
0
40
0.38999999999999335
210
0
220
0
230
1
100
AcDbArc
50
145.84073503957535
51
307.56037342631737
0
LINE
5
397
100
AcDbEntity
8
0
100
AcDbLine
10
91.93943944708613
20
105.97095858328892
30
0
11
92.76349421876543
21
106.60465874308245
31
0
0
ARC
5
398
100
AcDbEntity
8
0
100
AcDbCircle
10
92.940277365952525
20
106.37477242580667
30
0
40
0.29000000000001286
210
0
220
0
230
1
100
AcDbArc
50
-30.407343215002488
51
127.56037342631396
0
LINE
5
399
100
AcDbEntity
8
0
100
AcDbLine
10
92.684077302514652
20
105.36525905868763
30
0
11
93.190387520033852
21
106.22799057806853
31
0
0
ARC
5
400
100
AcDbEntity
8
0
100
AcDbCircle
10
90.385402517714766
20
107.40178413949195
30
0
40
0.38999999999999979
210
0
220
0
230
1
100
AcDbArc
50
146.54661739254985
51
308.26625577925807
0
LINE
5
401
100
AcDbEntity
8
0
100
AcDbLine
10
90.626936043214954
20
107.09557905125951
30
0
11
91.443121307256206
21
107.73938319384618
31
0
0
ARC
5
402
100
AcDbEntity
8
0
100
AcDbCircle
10
91.6227231595512
20
107.51169223080153
30
0
40
0.29000000000001497
210
0
220
0
230
1
100
AcDbArc
50
-29.701460862060653
51
128.26625577925384
0
LINE
5
403
100
AcDbEntity
8
0
100
AcDbLine
10
91.378979400085782
20
106.49909917798132
30
0
11
91.874622635191741
21
107.36800279426555
31
0
0
ARC
5
404
100
AcDbEntity
8
0
100
AcDbCircle
10
89.055389765820991
20
108.50715081640034
30
0
40
0.39000000000000512
210
0
220
0
230
1
100
AcDbArc
50
147.25249974545511
51
308.97213813220083
0
LINE
5
405
100
AcDbEntity
8
0
100
AcDbLine
10
89.300677303804648
20
108.2039445768374
30
0
11
90.108869179795875
21
108.85775498577229
31
0
0
ARC
5
406
100
AcDbEntity
8
0
100
AcDbCircle
10
90.291262477270905
20
108.63229393584085
30
0
40
0.29000000000000697
210
0
220
0
230
1
100
AcDbArc
50
-28.995578509124162
51
128.97213813219852
0
LINE
5
407
100
AcDbEntity
8
0
100
AcDbLine
10
90.060012017149745
20
107.61677488846048
30
0
11
90.544913041226081
21
108.49171871965669
31
0
0
ARC
5
408
100
AcDbEntity
8
0
100
AcDbCircle
10
87.711860207321109
20
109.59604830287772
30
0
40
0.38999999999999913
210
0
220
0
230
1
100
AcDbArc
50
147.95838209836788
51
309.67802048514091
0
LINE
5
409
100
AcDbEntity
8
0
100
AcDbLine
10
87.960864528102064
20
109.29588693255765
30
0
11
88.760940348865944
21
109.95960437264702
31
0
0
ARC
5
410
100
AcDbEntity
8
0
100
AcDbCircle
10
88.946097407908184
20
109.73640745625518
30
0
40
0.29000000000000703
210
0
220
0
230
1
100
AcDbArc
50
-28.289696156181105
51
129.67802048514011
0
LINE
5
411
100
AcDbEntity
8
0
100
AcDbLine
10
88.727375346273305
20
108.71811654956286
30
0
11
89.201460561153681
21
109.59896779689689
31
0
0
ARC
5
412
100
AcDbEntity
8
0
100
AcDbCircle
10
86.355017762822982
20
110.66831132631361
30
0
40
0.38999999999996504
210
0
220
0
230
1
100
AcDbArc
50
148.66426445137137
51
310.38390283808059
0
LINE
5
413
100
AcDbEntity
8
0
100
AcDbLine
10
86.6077010725826
20
110.37124038366028
30
0
11
87.399539402794829
21
111.04476411602354
31
0
0
ARC
5
414
100
AcDbEntity
8
0
100
AcDbCircle
10
87.587432120308364
20
110.82386520994801
30
0
40
0.29000000000002557
210
0
220
0
230
1
100
AcDbArc
50
-27.583813803239167
51
130.38390283807942
0
LINE
5
415
100
AcDbEntity
8
0
100
AcDbLine
10
87.381271654744012
20
109.80295699990366
30
0
11
87.844469103883426
21
110.68958196797551
31
0
0
ARC
5
416
100
AcDbEntity
8
0
100
AcDbCircle
10
84.985068373561205
20
111.72377713887259
30
0
40
0.38999999999997426
210
0
220
0
230
1
100
AcDbArc
50
149.37014680429672
51
311.0897851910247
0
LINE
5
417
100
AcDbEntity
8
0
100
AcDbLine
10
85.241392320084771
20
111.42984171324548
30
0
11
86.024872974705403
21
112.1130695106052
31
0
0
ARC
5
418
100
AcDbEntity
8
0
100
AcDbCircle
10
86.215472832376761
20
111.89450214283119
30
0
40
0.28999999999999082
210
0
220
0
230
1
100
AcDbArc
50
-26.877931450296412
51
131.08978519102214
0
LINE
5
419
100
AcDbEntity
8
0
100
AcDbLine
10
86.021905253870742
20
110.87113158264792
30
0
11
86.474144633267031
21
111.76339569972413
31
0
0
ARC
5
420
100
AcDbEntity
8
0
100
AcDbCircle
10
83.602219970139487
20
112.76228554219607
30
0
40
0.38999999999997992
210
0
220
0
230
1
100
AcDbArc
50
150.07602915720162
51
311.79566754396291
0
LINE
5
421
100
AcDbEntity
8
0
100
AcDbLine
10
83.862145648637224
20
112.47153024704656
30
0
11
84.637149711152489
21
113.16435840924454
31
0
0
ARC
5
422
100
AcDbEntity
8
0
100
AcDbCircle
10
84.830427779779001
20
112.94815575387695
30
0
40
0.28999999999999626
210
0
220
0
230
1
100
AcDbArc
50
-26.172049097351472
51
131.79566754395984
0
LINE
5
423
100
AcDbEntity
8
0
100
AcDbLine
10
84.649482467974181
20
111.92247817050381
30
0
11
85.090695136837965
21
112.82024600894115
31
0
0
ARC
5
424
100
AcDbEntity
8
0
100
AcDbCircle
10
82.206682440970852
20
113.78367891171703
30
0
40
0.38999999999999874
210
0
220
0
230
1
100
AcDbArc
50
150.78191151016949
51
312.50154989690361
0
LINE
5
425
100
AcDbEntity
8
0
100
AcDbLine
10
82.470170399983004
20
113.49614787781704
30
0
11
83.236580240454273
21
114.198471247554
31
0
0
ARC
5
426
100
AcDbEntity
8
0
100
AcDbCircle
10
83.432507184335094
20
113.98466611978219
30
0
40
0.29000000000000309
210
0
220
0
230
1
100
AcDbArc
50
-25.466166744415339
51
132.5015498969
0
LINE
5
427
100
AcDbEntity
8
0
100
AcDbLine
10
83.264211603069413
20
112.95683719032738
30
0
11
83.69433059424307
21
113.85997248712933
31
0
0
ARC
5
428
100
AcDbEntity
8
0
100
AcDbCircle
10
80.798667600421012
20
114.7878022205845
30
0
40
0.39000000000001095
210
0
220
0
230
1
100
AcDbArc
50
151.48779386312211
51
313.20743224984631
0
LINE
5
429
100
AcDbEntity
8
0
100
AcDbLine
10
81.065677847805674
20
114.50353908932833
30
0
11
81.823377140723323
21
115.21525106812445
31
0
0
ARC
5
430
100
AcDbEntity
8
0
100
AcDbCircle
10
82.021923222111923
20
115.00387591924164
30
0
40
0.29000000000000226
210
0
220
0
230
1
100
AcDbArc
50
-24.76028439147294
51
133.20743224984477
0
LINE
5
431
100
AcDbEntity
8
0
100
AcDbLine
10
81.866302915249847
20
113.97405164734359
30
0
11
82.285262945371883
21
114.88241732484266
31
0
0
ARC
5
432
100
AcDbEntity
8
0
100
AcDbCircle
10
79.378389156659054
20
115.77450306319321
30
0
40
0.38999999999999119
210
0
220
0
230
1
100
AcDbArc
50
152.19367621603939
51
313.91331460279156
0
LINE
5
433
100
AcDbEntity
8
0
100
AcDbLine
10
79.648881165662232
20
115.49355097997363
30
0
11
80.397754907601637
21
116.21454354434825
31
0
0
ARC
5
434
100
AcDbEntity
8
0
100
AcDbCircle
10
80.598889991219366
20
116.00563045682597
30
0
40
0.29000000000001247
210
0
220
0
230
1
100
AcDbArc
50
-24.054402038533194
51
133.91331460278494
0
LINE
5
435
100
AcDbEntity
8
0
100
AcDbLine
10
80.455968578775355
20
114.9739671489763
30
0
11
80.863706058188583
21
115.88742533563844
31
0
0
ARC
5
436
100
AcDbEntity
8
0
100
AcDbCircle
10
77.946062679221072
20
116.74363167831589
30
0
40
0.38999999999996937
210
0
220
0
230
1
100
AcDbArc
50
152.89955856902665
51
314.61919695573107
0
LINE
5
437
100
AcDbEntity
8
0
100
AcDbLine
10
78.21999539462773
20
116.46603328597556
30
0
11
78.959929921704315
21
117.19619700384283
31
0
0
ARC
5
438
100
AcDbEntity
8
0
100
AcDbCircle
10
79.163623479314367
20
116.98977768646154
30
0
40
0.29000000000000498
210
0
220
0
230
1
100
AcDbArc
50
-23.348519685591103
51
134.61919695572539
0
LINE
5
439
100
AcDbEntity
8
0
100
AcDbLine
10
79.033422653867717
20
115.95643192828037
30
0
11
79.429875696271026
21
116.87484397963161
31
0
0
ARC
5
440
100
AcDbEntity
8
0
100
AcDbCircle
10
76.501905566290816
20
117.69504097183392
30
0
40
0.38999999999999596
210
0
220
0
230
1
100
AcDbArc
50
153.60544092193601
51
315.3250793086728
0
LINE
5
441
100
AcDbEntity
8
0
100
AcDbLine
10
76.779237410656307
20
117.42083840419309
30
0
11
77.510120415777493
21
118.16006245147162
31
0
0
ARC
5
442
100
AcDbEntity
8
0
100
AcDbCircle
10
77.716341530818468
20
117.95616823450789
30
0
40
0.29000000000001591
210
0
220
0
230
1
100
AcDbArc
50
-22.642637332648551
51
135.32507930866285
0
LINE
5
443
100
AcDbEntity
8
0
100
AcDbLine
10
77.598881054220385
20
116.92129686697663
30
0
11
77.983989486062228
21
117.84452338664718
31
0
0
ARC
5
444
100
AcDbEntity
8
0
100
AcDbCircle
10
75.046137011703209
20
118.62858653906324
30
0
40
0.38999999999998042
210
0
220
0
230
1
100
AcDbArc
50
154.31132327484727
51
316.03096166161197
0
LINE
5
445
100
AcDbEntity
8
0
100
AcDbLine
10
75.326825891663901
20
118.35782141452462
30
0
11
76.048546441575013
21
119.10599359195827
31
0
0
ARC
5
446
100
AcDbEntity
8
0
100
AcDbCircle
10
76.257263813853484
20
118.90465542242953
30
0
40
0.28999999999999282
210
0
220
0
230
1
100
AcDbArc
50
-21.936754979704578
51
136.03096166160918
0
LINE
5
447
100
AcDbEntity
8
0
100
AcDbLine
10
76.152561514228282
20
117.8684155180872
30
0
11
76.526266883839156
21
118.79631637896743
31
0
0
ARC
5
448
100
AcDbEntity
8
0
100
AcDbCircle
10
73.578977971675172
20
119.54412668667202
30
0
40
0.38999999999998813
210
0
220
0
230
1
100
AcDbArc
50
155.01720562780412
51
316.73684401455273
0
LINE
5
449
100
AcDbEntity
8
0
100
AcDbLine
10
73.862981284337337
20
119.27684010190404
30
0
11
74.575429836459065
21
120.03384685209156
31
0
0
ARC
5
450
100
AcDbEntity
8
0
100
AcDbCircle
10
74.786611786900153
20
119.83509528905896
30
0
40
0.29000000000000387
210
0
220
0
230
1
100
AcDbArc
50
-21.230872626767731
51
136.73684401455054
0
LINE
5
451
100
AcDbEntity
8
0
100
AcDbLine
10
74.694683555938866
20
118.79764412816021
30
0
11
75.056929142403561
21
119.73007849367056
31
0
0
ARC
5
452
100
AcDbEntity
8
0
100
AcDbCircle
10
72.100651131268819
20
120.4415224541869
30
0
40
0.3900000000000059
210
0
220
0
230
1
100
AcDbArc
50
155.72308798075366
51
317.44272636749474
0
LINE
5
453
100
AcDbEntity
8
0
100
AcDbLine
10
72.387925770674855
20
120.17775497788605
30
0
11
73.090994189729599
21
120.94348140251671
31
0
0
ARC
5
454
100
AcDbEntity
8
0
100
AcDbCircle
10
73.30460866518537
20
120.74734661244685
30
0
40
0.29000000000000392
210
0
220
0
230
1
100
AcDbArc
50
-20.524990273828742
51
137.442726367494
0
LINE
5
455
100
AcDbEntity
8
0
100
AcDbLine
10
73.225468455733647
20
119.70884165909038
30
0
11
73.576199277500379
21
120.64566800455725
31
0
0
ARC
5
456
100
AcDbEntity
8
0
100
AcDbCircle
10
70.611380870592455
20
121.32063763508448
30
0
40
0.38999999999998419
210
0
220
0
230
1
100
AcDbArc
50
156.4289703336739
51
318.14860872043488
0
LINE
5
457
100
AcDbEntity
8
0
100
AcDbLine
10
70.901883234263607
20
121.06042930181769
30
0
11
71.595464808688178
21
121.83475917911068
31
0
0
ARC
5
458
100
AcDbEntity
8
0
100
AcDbCircle
10
71.811479386802603
20
121.64127093129692
30
0
40
0.29000000000000814
210
0
220
0
230
1
100
AcDbArc
50
-19.819107920891895
51
138.14860872043283
0
LINE
5
459
100
AcDbEntity
8
0
100
AcDbLine
10
71.745139210743275
20
120.60186980952601
30
0
11
72.084302033968441
21
121.54294594366186
31
0
0
ARC
5
460
100
AcDbEntity
8
0
100
AcDbCircle
10
69.11139323074427
20
122.18133879746441
30
0
40
0.38999999999999341
210
0
220
0
230
1
100
AcDbArc
50
157.13485268666918
51
318.85449107337507
0
LINE
5
461
100
AcDbEntity
8
0
100
AcDbLine
10
69.405079226298469
20
121.92472910159276
30
0
11
70.08906868444079
21
122.70754490393708
31
0
0
ARC
5
462
100
AcDbEntity
8
0
100
AcDbCircle
10
70.307450578570837
20
122.51673256598124
30
0
40
0.28999999999999354
210
0
220
0
230
1
100
AcDbArc
50
-19.11322556794395
51
138.85449107337615
0
LINE
5
463
100
AcDbEntity
8
0
100
AcDbLine
10
70.253920505000664
20
121.47659303585974
30
0
11
70.581463851628769
21
122.42177612234484
31
0
0
ARC
5
464
100
AcDbEntity
8
0
100
AcDbCircle
10
67.600915879503688
20
123.02349530430197
30
0
40
0.38999999999999452
210
0
220
0
230
1
100
AcDbArc
50
157.84073503954099
51
319.56037342632015
0
LINE
5
465
100
AcDbEntity
8
0
100
AcDbLine
10
67.897740931348011
20
122.77052319398619
30
0
11
68.572034457445199
21
123.56170610577917
31
0
0
ARC
5
466
100
AcDbEntity
8
0
100
AcDbCircle
10
68.792750521637117
20
123.37359863913409
30
0
40
0.29000000000001064
210
0
220
0
230
1
100
AcDbArc
50
-18.407343215001706
51
139.56037342631689
0
LINE
5
467
100
AcDbEntity
8
0
100
AcDbLine
10
68.752038675338184
20
122.33287857280044
30
0
11
69.067912830915517
21
123.2820251519635
31
0
0
ARC
5
468
100
AcDbEntity
8
0
100
AcDbCircle
10
66.080178076776264
20
123.84697933327595
30
0
40
0.38999999999998253
210
0
220
0
230
1
100
AcDbArc
50
158.54661739251119
51
320.26625577925955
0
LINE
5
469
100
AcDbEntity
8
0
100
AcDbLine
10
66.380097132872464
20
123.59768320456483
30
0
11
67.04459238280802
21
124.39711314024579
31
0
0
ARC
5
470
100
AcDbEntity
8
0
100
AcDbCircle
10
67.267609116828268
20
124.21173909581958
30
0
40
0.29000000000000076
210
0
220
0
230
1
100
AcDbArc
50
-17.701460862063943
51
140.2662557792604
0
LINE
5
471
100
AcDbEntity
8
0
100
AcDbLine
10
67.239721677035547
20
123.17059645352725
30
0
11
67.543878698255
21
124.12356246411764
31
0
0
ARC
5
472
100
AcDbEntity
8
0
100
AcDbCircle
10
64.549410639796378
20
124.65166589616959
30
0
40
0.38999999999999835
210
0
220
0
230
1
100
AcDbArc
50
159.25249974544667
51
320.97213813220111
0
LINE
5
473
100
AcDbEntity
8
0
100
AcDbLine
10
64.852378178499038
20
124.40608358717228
30
0
11
65.506974295336477
21
125.21363920944921
31
0
0
ARC
5
474
100
AcDbEntity
8
0
100
AcDbCircle
10
65.732257849756394
20
125.03102672327174
30
0
40
0.2900000000000113
210
0
220
0
230
1
100
AcDbArc
50
-16.995578509122517
51
140.97213813220208
0
LINE
5
475
100
AcDbEntity
8
0
100
AcDbLine
10
65.717199049218905
20
123.98961952941121
30
0
11
66.009592771197859
21
124.94626033046737
31
0
0
ARC
5
476
100
AcDbEntity
8
0
100
AcDbCircle
10
63.008845908094067
20
125.43743285784115
30
0
40
0.38999999999998475
210
0
220
0
230
1
100
AcDbArc
50
159.95838209840815
51
321.67802048514159
0
LINE
5
477
100
AcDbEntity
8
0
100
AcDbLine
10
63.314815945059728
20
125.1956016429841
30
0
11
63.959413574350833
21
126.01116038125012
31
0
0
ARC
5
478
100
AcDbEntity
8
0
100
AcDbCircle
10
64.186929755684261
20
125.83133717020259
30
0
40
0.2900000000000062
210
0
220
0
230
1
100
AcDbArc
50
-16.289696156181595
51
141.67802048514179
0
LINE
5
479
100
AcDbEntity
8
0
100
AcDbLine
10
64.184701880023312
20
124.78982348931885
30
0
11
64.465287923309759
21
125.74999388211943
31
0
0
ARC
5
480
100
AcDbEntity
8
0
100
AcDbCircle
10
61.458717708230523
20
126.20416095476162
30
0
40
0.38999999999999596
210
0
220
0
230
1
100
AcDbArc
50
160.66426445132797
51
322.38390283808366
0
LINE
5
481
100
AcDbEntity
8
0
100
AcDbLine
10
61.767643803397235
20
125.96611753913112
30
0
11
62.402145108261848
21
126.78955560806826
31
0
0
ARC
5
482
100
AcDbEntity
8
0
100
AcDbCircle
10
62.631859384155035
20
126.6125489656763
30
0
40
0.29000000000000042
210
0
220
0
230
1
100
AcDbArc
50
-15.583813803233499
51
142.38390283807504
0
LINE
5
483
100
AcDbEntity
8
0
100
AcDbLine
10
62.642462771517067
20
125.57108687847646
30
0
11
62.911198548825816
21
126.53464112857996
31
0
0
ARC
5
484
100
AcDbEntity
8
0
100
AcDbCircle
10
59.899261318307886
20
126.95173381311659
30
0
40
0.38999999999999058
210
0
220
0
230
1
100
AcDbArc
50
161.37014680429769
51
323.08978519102544
0
LINE
5
485
100
AcDbEntity
8
0
100
AcDbLine
10
60.211096582943895
20
126.71751432688757
30
0
11
60.835405258919678
21
127.54870674525478
31
0
0
ARC
5
486
100
AcDbEntity
8
0
100
AcDbCircle
10
61.067282763392598
20
127.374543537546
30
0
40
0.29000000000000242
210
0
220
0
230
1
100
AcDbArc
50
-14.877931450296751
51
143.0897851910222
0
LINE
5
487
100
AcDbEntity
8
0
100
AcDbLine
10
61.090715804397973
20
126.33329111690672
30
0
11
61.347560527074393
21
127.30008297627006
31
0
0
ARC
5
488
100
AcDbEntity
8
0
100
AcDbCircle
10
58.330713432258889
20
127.68003796646929
30
0
40
0.38999999999998919
210
0
220
0
230
1
100
AcDbArc
50
162.07602915745497
51
323.79566754396694
0
LINE
5
489
100
AcDbEntity
8
0
100
AcDbLine
10
58.645410536079332
20
127.44967795942158
30
0
11
59.25943182573883
21
128.28849856902454
31
0
0
ARC
5
490
100
AcDbEntity
8
0
100
AcDbCircle
10
59.493437364477096
20
128.11720523045057
30
0
40
0.29000000000000931
210
0
220
0
230
1
100
AcDbArc
50
-14.172049097356085
51
143.7956675439595
0
LINE
5
491
100
AcDbEntity
8
0
100
AcDbLine
10
59.529696502464155
20
127.07632051742479
30
0
11
59.77461118667533
21
128.04620324660192
31
0
0
ARC
5
492
100
AcDbEntity
8
0
100
AcDbCircle
10
56.75331212392134
20
128.38896287298263
30
0
40
0.38999999999999507
210
0
220
0
230
1
100
AcDbArc
50
162.78191151014451
51
324.50154989690265
0
LINE
5
493
100
AcDbEntity
8
0
100
AcDbLine
10
57.070823302272061
20
128.16249730910516
30
0
11
57.674464009604954
21
129.00881879394439
31
0
0
ARC
5
494
100
AcDbEntity
8
0
100
AcDbCircle
10
57.91056206530164
20
128.84042132336884
30
0
40
0.28999999999999942
210
0
220
0
230
1
100
AcDbArc
50
-13.466166744412977
51
144.50154989690415
0
LINE
5
495
100
AcDbEntity
8
0
100
AcDbLine
10
57.95964179686645
20
127.800062303198
30
0
11
58.192589269518123
21
128.77288869361232
31
0
0
ARC
5
496
100
AcDbEntity
8
0
100
AcDbCircle
10
55.167296810903764
20
129.07840093219698
30
0
40
0.38999999999999452
210
0
220
0
230
1
100
AcDbArc
50
163.48779386308732
51
325.20743224985137
0
LINE
5
497
100
AcDbEntity
8
0
100
AcDbLine
10
55.487573872011062
20
128.85586418438112
30
0
11
56.080742376569404
21
129.70955808997596
31
0
0
ARC
5
498
100
AcDbEntity
8
0
100
AcDbCircle
10
56.318897114315838
20
129.54408204672825
30
0
40
0.28999999999999343
210
0
220
0
230
1
100
AcDbArc
50
-12.760284391470023
51
145.20743224984736
0
LINE
5
499
100
AcDbEntity
8
0
100
AcDbLine
10
56.380789990148763
20
128.50440662486864
30
0
11
56.601734894526302
21
129.48002902115087
31
0
0
ARC
5
500
100
AcDbEntity
8
0
100
AcDbCircle
10
53.57290821824602
20
129.74824750136216
30
0
40
0.39000000000000057
210
0
220
0
230
1
100
AcDbArc
50
164.1936762160463
51
325.91331460278917
0
LINE
5
501
100
AcDbEntity
8
0
100
AcDbLine
10
53.89590255053109
20
129.5296733461843
30
0
11
54.478508821335495
21
130.3906100990699
31
0
0
ARC
5
502
100
AcDbEntity
8
0
100
AcDbCircle
10
54.718684094060286
20
130.22808059906581
30
0
40
0.2900000000000052
210
0
220
0
230
1
100
AcDbArc
50
-12.05440203853129
51
145.91331460278099
0
LINE
5
503
100
AcDbEntity
8
0
100
AcDbLine
10
54.793380720074431
20
129.18924657721249
30
0
11
55.002289521211409
21
130.16751689962106
31
0
0
ARC
5
504
100
AcDbEntity
8
0
100
AcDbCircle
10
51.970388341882497
20
130.39840091131973
30
0
40
0.38999999999999124
210
0
220
0
230
1
100
AcDbArc
50
164.89955856897575
51
326.61919695572993
0
LINE
5
505
100
AcDbEntity
8
0
100
AcDbLine
10
52.296050921339784
20
130.18382252391496
30
0
11
52.868006530544278
21
131.05187145130861
31
0
0
ARC
5
506
100
AcDbEntity
8
0
100
AcDbCircle
10
53.110165884499679
20
130.89231316323841
30
0
40
0.29000000000000259
210
0
220
0
230
1
100
AcDbArc
50
-11.348519685590015
51
146.61919695573022
0
LINE
5
507
100
AcDbEntity
8
0
100
AcDbLine
10
53.197654923258284
20
129.85447821538051
30
0
11
53.394495913024855
21
130.83524798227072
31
0
0
ARC
5
508
100
AcDbEntity
8
0
100
AcDbCircle
10
50.359980411912055
20
131.02876248193439
30
0
40
0.38999999999999535
210
0
220
0
230
1
100
AcDbArc
50
165.6054409219245
51
327.32507930866734
0
LINE
5
509
100
AcDbEntity
8
0
100
AcDbLine
10
50.688261809550006
20
130.81821243096107
30
0
11
51.249479945863584
21
131.693241780596
31
0
0
ARC
5
510
100
AcDbEntity
8
0
100
AcDbCircle
10
51.493586626158475
20
131.53667892217996
30
0
40
0.28999999999999371
210
0
220
0
230
1
100
AcDbArc
50
-10.642637332651995
51
147.3250793086718
0
LINE
5
511
100
AcDbEntity
8
0
100
AcDbLine
10
51.593854798595373
20
130.50000057066774
30
0
11
51.77859810051126
21
131.48312092102935
31
0
0
ARC
5
512
100
AcDbEntity
8
0
100
AcDbCircle
10
48.741928855680399
20
131.63923653707178
30
0
40
0.38999999999999124
210
0
220
0
230
1
100
AcDbArc
50
166.31132327487708
51
328.03096166161106
0
LINE
5
513
100
AcDbEntity
8
0
100
AcDbLine
10
49.072779245023916
20
131.43274677976831
30
0
11
49.623174726886731
21
132.31462373989078
31
0
0
ARC
5
514
100
AcDbEntity
8
0
100
AcDbCircle
10
49.869191683065225
20
132.16108007420357
30
0
40
0.29000000000000592
210
0
220
0
230
1
100
AcDbArc
50
-9.9367549797108197
51
148.03096166160711
0
LINE
5
515
100
AcDbEntity
8
0
100
AcDbLine
10
49.982223770500205
20
131.12571566583898
30
0
11
50.154841344269528
21
132.11103738189118
31
0
0
ARC
5
516
100
AcDbEntity
8
0
100
AcDbCircle
10
47.116479260681167
20
132.22973041911999
30
0
40
0.38999999999998652
210
0
220
0
230
1
100
AcDbArc
50
167.01720562779127
51
328.73684401455483
0
LINE
5
517
100
AcDbEntity
8
0
100
AcDbLine
10
47.449848425334125
20
132.02733229645432
30
0
11
47.989337713846325
21
132.9159230159818
31
0
0
ARC
5
518
100
AcDbEntity
8
0
100
AcDbCircle
10
48.237227605511343
20
132.76542184784577
30
0
40
0.29000000000000031
210
0
220
0
230
1
100
AcDbArc
50
-9.23087262676761
51
148.73684401455122
0
LINE
5
519
100
AcDbEntity
8
0
100
AcDbLine
10
48.363006451960118
20
131.73152853000093
30
0
11
48.523472097727165
21
132.71890205983996
31
0
0
ARC
5
520
100
AcDbEntity
8
0
100
AcDbCircle
10
45.483878337280579
20
132.80015450305319
30
0
40
0.38999999999999951
210
0
220
0
230
1
100
AcDbArc
50
167.72308798073107
51
329.44272636749815
0
LINE
5
521
100
AcDbEntity
8
0
100
AcDbLine
10
45.819715678547709
20
132.60187873496591
30
0
11
46.348216890149018
21
133.4970483438031
31
0
0
ARC
5
522
100
AcDbEntity
8
0
100
AcDbCircle
10
46.597942092629708
20
133.349612516251
30
0
40
0.29000000000000242
210
0
220
0
230
1
100
AcDbArc
50
-8.5249902738321861
51
149.44272636749554
0
LINE
5
523
100
AcDbEntity
8
0
100
AcDbLine
10
46.736448607407922
20
132.31734721301646
30
0
11
46.88473796973377
21
133.30662269331447
31
0
0
ARC
5
524
100
AcDbEntity
8
0
100
AcDbCircle
10
43.844373881271828
20
133.35042221003499
30
0
40
0.38999999999999985
210
0
220
0
230
1
100
AcDbArc
50
168.42897033369584
51
330.14860872043681
0
LINE
5
525
100
AcDbEntity
8
0
100
AcDbLine
10
44.182628425838629
20
133.15629889077658
30
0
11
44.700061344736504
21
134.05791152028587
31
0
0
ARC
5
526
100
AcDbEntity
8
0
100
AcDbCircle
10
44.951583954798984
20
133.91356341109369
30
0
40
0.29000000000000881
210
0
220
0
230
1
100
AcDbArc
50
-7.8191079208911134
51
150.14860872043056
0
LINE
5
527
100
AcDbEntity
8
0
100
AcDbLine
10
45.102797115419584
20
132.88308279945997
30
0
11
45.238887686978934
21
133.87411007821191
31
0
0
ARC
5
528
100
AcDbEntity
8
0
100
AcDbCircle
10
42.198214736264717
20
133.88045002055915
30
0
40
0.38999999999999724
210
0
220
0
230
1
100
AcDbArc
50
169.13485268661992
51
330.85449107337615
0
LINE
5
529
100
AcDbEntity
8
0
100
AcDbLine
10
42.538835143934079
20
133.69050861412245
30
0
11
43.045121234278945
21
134.59842741774594
31
0
0
ARC
5
530
100
AcDbEntity
8
0
100
AcDbCircle
10
43.298403075879229
20
134.4571889360366
30
0
40
0.29000000000000886
210
0
220
0
230
1
100
AcDbArc
50
-7.1132255679467837
51
150.85449107337607
0
LINE
5
531
100
AcDbEntity
8
0
100
AcDbLine
10
43.4622999312434
20
133.42864942211412
30
0
11
43.586171056240566
21
134.4212780814274
31
0
0
ARC
5
532
100
AcDbEntity
8
0
100
AcDbCircle
10
40.545650755916242
20
134.39015748712632
30
0
40
0.38999999999999418
210
0
220
0
230
1
100
AcDbArc
50
169.84073503956338
51
331.56037342631527
0
LINE
5
533
100
AcDbEntity
8
0
100
AcDbLine
10
40.888585327400918
20
134.20442682277437
30
0
11
41.383647745206247
21
135.11851399680461
31
0
0
ARC
5
534
100
AcDbEntity
8
0
100
AcDbCircle
10
41.638650375284591
20
134.98040657972237
30
0
40
0.29000000000000237
210
0
220
0
230
1
100
AcDbArc
50
-6.4073432150025056
51
151.56037342631151
0
LINE
5
535
100
AcDbEntity
8
0
100
AcDbLine
10
41.815206049165297
20
133.95396427500262
30
0
11
41.926838926469337
21
134.94804365392702
31
0
0
ARC
5
536
100
AcDbEntity
8
0
100
AcDbCircle
10
38.886932766007781
20
134.87946724645428
30
0
40
0.38999999999999269
210
0
220
0
230
1
100
AcDbArc
50
170.54661739249579
51
332.2662557792608
0
LINE
5
537
100
AcDbEntity
8
0
100
AcDbLine
10
39.232129450777286
20
134.69797551434471
30
0
11
39.715893055582988
21
135.6180923188403
31
0
0
ARC
5
538
100
AcDbEntity
8
0
100
AcDbCircle
10
39.97257776989877
20
135.48313692829726
30
0
40
0.28999999999999865
210
0
220
0
230
1
100
AcDbArc
50
-5.7014608620644349
51
152.26625577925662
0
LINE
5
539
100
AcDbEntity
8
0
100
AcDbLine
10
40.161765464716375
20
134.45894762595734
30
0
11
40.261143150714823
21
135.45432684335316
31
0
0
ARC
5
540
100
AcDbEntity
8
0
100
AcDbCircle
10
37.222312526374935
20
135.34830503122015
30
0
40
0.38999999999999535
210
0
220
0
230
1
100
AcDbArc
50
171.25249974546122
51
332.97213813220236
0
LINE
5
541
100
AcDbEntity
8
0
100
AcDbLine
10
37.569718930555716
20
135.17107977812634
30
0
11
38.042110296832959
21
136.09708655797004
31
0
0
ARC
5
542
100
AcDbEntity
8
0
100
AcDbCircle
10
38.300438135839187
20
135.96530367746436
30
0
40
0.28999999999999554
210
0
220
0
230
1
100
AcDbArc
50
-4.9955785091195457
51
152.97213813219781
0
LINE
5
543
100
AcDbEntity
8
0
100
AcDbLine
10
38.502229136728815
20
134.94352282872146
30
0
11
38.589336547899308
21
135.94005080615963
31
0
0
ARC
5
544
100
AcDbEntity
8
0
100
AcDbCircle
10
35.552042692695331
20
135.79659968133265
30
0
40
0.38999999999999641
210
0
220
0
230
1
100
AcDbArc
50
171.95838209839349
51
333.67802048513869
0
LINE
5
545
100
AcDbEntity
8
0
100
AcDbLine
10
35.901606087023161
20
135.62366780646278
30
0
11
36.362553515318865
21
136.55542401255826
31
0
0
ARC
5
546
100
AcDbEntity
8
0
100
AcDbCircle
10
36.622485270075444
20
136.42683364406525
30
0
40
0.29000000000000326
210
0
220
0
230
1
100
AcDbArc
50
-4.2896961561764373
51
153.67802048513335
0
LINE
5
547
100
AcDbEntity
8
0
100
AcDbLine
10
36.836848949245329
20
135.40761633458169
30
0
11
36.91167286444503
21
136.40514181927489
31
0
0
ARC
5
548
100
AcDbEntity
8
0
100
AcDbCircle
10
33.876376778140759
20
136.22428315473269
30
0
40
0.38999999999999813
210
0
220
0
230
1
100
AcDbArc
50
172.66426445131776
51
334.38390283808428
0
LINE
5
549
100
AcDbEntity
8
0
100
AcDbLine
10
34.228044105963917
20
136.05567090564708
30
0
11
34.677477633783276
21
136.99303511625129
31
0
0
ARC
5
550
100
AcDbEntity
8
0
100
AcDbCircle
10
34.938973851908187
20
136.86765677718762
30
0
40
0.2900000000000012
210
0
220
0
230
1
100
AcDbArc
50
-3.5838138032420819
51
154.38390283808195
0
LINE
5
551
100
AcDbEntity
8
0
100
AcDbLine
10
35.165877673288335
20
135.85115770353278
30
0
11
35.228406735760551
21
136.84952929129176
31
0
0
ARC
5
552
100
AcDbEntity
8
0
100
AcDbCircle
10
32.195569114898888
20
136.63129053772093
30
0
40
0.38999999999999319
210
0
220
0
230
1
100
AcDbArc
50
173.37014680427447
51
335.08978519102754
0
LINE
5
553
100
AcDbEntity
8
0
100
AcDbLine
10
32.549287000231132
20
136.467023506348
30
0
11
32.987138412656513
21
137.40985344853635
31
0
0
ARC
5
554
100
AcDbEntity
8
0
100
AcDbCircle
10
33.25015940431382
20
137.28770616879746
30
0
40
0.28999999999999537
210
0
220
0
230
1
100
AcDbArc
50
-2.8779314502927145
51
155.08978519101802
0
LINE
5
555
100
AcDbEntity
8
0
100
AcDbLine
10
33.489568928494329
20
136.27407961496738
30
0
11
33.539793647592326
21
137.27314577318182
31
0
0
ARC
5
556
100
AcDbEntity
8
0
100
AcDbCircle
10
30.509874815570832
20
137.01756005481028
30
0
40
0.38999999999999546
210
0
220
0
230
1
100
AcDbArc
50
174.07602915720921
51
335.79566754396564
0
LINE
5
557
100
AcDbEntity
8
0
100
AcDbLine
10
30.865589571192757
20
136.85766317356229
30
0
11
31.291792411237335
21
137.80581574482272
31
0
0
ARC
5
558
100
AcDbEntity
8
0
100
AcDbCircle
10
31.556298255161327
20
137.68691806389472
30
0
40
0.29000000000000004
210
0
220
0
230
1
100
AcDbArc
50
-2.1720490973601403
51
155.79566754396362
0
LINE
5
559
100
AcDbEntity
8
0
100
AcDbLine
10
31.808177144619592
20
136.67631787789466
30
0
11
31.846089897247055
21
137.67592696853274
31
0
0
ARC
5
560
100
AcDbEntity
8
0
100
AcDbCircle
10
28.819549734450206
20
137.3830330781021
30
0
40
0.38999999999999918
210
0
220
0
230
1
100
AcDbArc
50
174.78191151015852
51
336.50154989690765
0
LINE
5
561
100
AcDbEntity
8
0
100
AcDbLine
10
29.177207370057889
20
137.227530616091
30
0
11
29.591696948752492
21
138.18086190604396
31
0
0
ARC
5
562
100
AcDbEntity
8
0
100
AcDbCircle
10
29.857647498306914
20
138.06523187018951
30
0
40
0.29000000000000564
210
0
220
0
230
1
100
AcDbArc
50
-1.4661667444100601
51
156.50154989689895
0
LINE
5
563
100
AcDbEntity
8
0
100
AcDbLine
10
30.121957522922962
20
137.05781144068385
30
0
11
30.147552554690989
21
138.05781174330718
31
0
0
ARC
5
564
100
AcDbEntity
8
0
100
AcDbCircle
10
27.124850428689605
20
137.72765413618487
30
0
40
0.3899999999999923
210
0
220
0
230
1
100
AcDbArc
50
175.48779386309417
51
337.20743224984761
0
LINE
5
565
100
AcDbEntity
8
0
100
AcDbLine
10
27.48439665908926
20
137.57656969553861
30
0
11
27.887110065300821
21
138.53493500777986
31
0
0
ARC
5
566
100
AcDbEntity
8
0
100
AcDbCircle
10
28.154464954572358
20
138.42259016729932
30
0
40
0.28999999999999815
210
0
220
0
230
1
100
AcDbArc
50
-0.76028439147539939
51
157.20743224984847
0
LINE
5
567
100
AcDbEntity
8
0
100
AcDbLine
10
28.431165997431336
20
137.41850240032932
30
0
11
28.444439423531882
21
138.41874213512173
31
0
0
ARC
5
568
100
AcDbEntity
8
0
100
AcDbCircle
10
25.426034119360466
20
138.05137092255353
30
0
40
0.39000000000000257
210
0
220
0
230
1
100
AcDbArc
50
176.19367621602009
51
337.9133146027894
0
LINE
5
569
100
AcDbEntity
8
0
100
AcDbLine
10
25.787414372707818
20
137.90472743483383
30
0
11
26.17829048268803
21
138.86798130889642
31
0
0
ARC
5
570
100
AcDbEntity
8
0
100
AcDbCircle
10
26.447009132612983
20
138.75893871546378
30
0
40
0.28999999999999743
210
0
220
0
230
1
100
AcDbArc
50
-0.054402038526693383
51
157.9133146027828
0
LINE
5
571
100
AcDbEntity
8
0
100
AcDbLine
10
26.736059196094164
20
137.75833601124023
30
0
11
26.737009001889668
21
138.75866336204442
31
0
0
ARC
5
572
100
AcDbEntity
8
0
100
AcDbCircle
10
23.723358652412067
20
138.35413430354862
30
0
40
0.38999999999999979
210
0
220
0
230
1
100
AcDbArc
50
176.89955856897714
51
338.61919695572868
0
LINE
5
573
100
AcDbEntity
8
0
100
AcDbLine
10
24.086518078495253
20
138.21195402627035
30
0
11
24.465497565157918
21
139.17995025970245
31
0
0
ARC
5
574
100
AcDbEntity
8
0
100
AcDbCircle
10
24.735539189681312
20
139.07422646377756
30
0
40
0.28999999999999981
210
0
220
-0
230
1
100
AcDbArc
50
0.65148031440657395
51
158.61919695572504
0
LINE
5
575
100
AcDbEntity
8
0
100
AcDbLine
10
25.036894401832438
20
138.07726069354916
30
0
11
25.025520443161597
21
139.07752383090948
31
0
0
ARC
5
576
100
AcDbEntity
8
0
100
AcDbCircle
10
22.017082459535729
20
138.63589832581368
30
0
40
0.38999999999999635
210
0
220
0
230
1
100
AcDbArc
50
177.60544092191444
51
339.32507930867092
0
LINE
5
577
100
AcDbEntity
8
0
100
AcDbLine
10
22.381965938100471
20
138.49820283906669
30
0
11
22.748991280026132
21
139.47079450962229
31
0
0
ARC
5
578
100
AcDbEntity
8
0
100
AcDbCircle
10
23.02031489229222
20
139.36840555793864
30
0
40
0.28999999999999926
210
0
220
-0
230
1
100
AcDbArc
50
1.3573626673491779
51
159.32507930867266
0
LINE
5
579
100
AcDbEntity
8
0
100
AcDbLine
10
23.3339295134884
20
138.37522804094081
30
0
11
23.310233516688047
21
139.37527514514824
31
0
0
ARC
5
580
100
AcDbEntity
8
0
100
AcDbCircle
10
20.307464518940161
20
138.89662022327013
30
0
40
0.38999999999999668
210
0
220
0
230
1
100
AcDbArc
50
178.31132327486185
51
340.03096166161083
0
LINE
5
581
100
AcDbEntity
8
0
100
AcDbLine
10
20.674016668055874
20
138.76343042644376
30
0
11
21.029032158222428
21
139.74046991438252
31
0
0
ARC
5
582
100
AcDbEntity
8
0
100
AcDbCircle
10
21.301596576795649
20
139.64143134751163
30
0
40
0.28999999999999559
210
0
220
-0
230
1
100
AcDbArc
50
2.0632450202866286
51
160.03096166161146
0
LINE
5
583
100
AcDbEntity
8
0
100
AcDbLine
10
21.627423006681706
20
138.65219282799995
30
0
11
21.591408568324791
21
139.6518721121345
31
0
0
ARC
5
584
100
AcDbEntity
8
0
100
AcDbCircle
10
18.594764316043737
20
139.13626042360823
30
0
40
0.38999999999999174
210
0
220
0
230
1
100
AcDbArc
50
179.0172056278094
51
340.73684401455415
0
LINE
5
585
100
AcDbEntity
8
0
100
AcDbLine
10
18.962929500509411
20
139.00759653221928
30
0
11
19.305881254747291
21
139.98893554271206
31
0
0
ARC
5
586
100
AcDbEntity
8
0
100
AcDbCircle
10
19.579645109862795
20
139.89326239270488
30
0
40
0.28999999999999737
210
0
220
-0
230
1
100
AcDbArc
50
2.7691273732287569
51
160.73684401455392
0
LINE
5
587
100
AcDbEntity
8
0
100
AcDbLine
10
19.917633894578035
20
138.90811301707461
30
0
11
19.86930648092774
21
139.9072727500442
31
0
0
ARC
5
588
100
AcDbEntity
8
0
100
AcDbCircle
10
16.879241804089919
20
139.35478255429345
30
0
40
0.38999999999999807
210
0
220
0
230
1
100
AcDbArc
50
179.72308798072905
51
341.44272636749224
0
LINE
5
589
100
AcDbEntity
8
0
100
AcDbLine
10
17.24896414387841
20
139.23066409691776
30
0
11
17.579800109049128
21
140.21615368255496
31
0
0
ARC
5
590
100
AcDbEntity
8
0
100
AcDbCircle
10
17.854721848891852
20
140.12386047066022
30
0
40
0.28999999999999687
210
0
220
-0
230
1
100
AcDbArc
50
3.4750097261702702
51
161.44272636749227
0
LINE
5
591
100
AcDbEntity
8
0
100
AcDbLine
10
18.204821688576153
20
139.14294976465732
30
0
11
18.144188634756219
21
140.14143829422716
31
0
0
ARC
5
592
100
AcDbEntity
8
0
100
AcDbCircle
10
15.161157364691586
20
139.55215344808693
30
0
40
0.38999999999999435
210
0
220
0
230
1
100
AcDbArc
50
180.4289703339193
51
342.14860872043619
0
LINE
5
593
100
AcDbEntity
8
0
100
AcDbLine
10
15.532380743431077
20
139.4325992633955
30
0
11
15.851050705327811
21
140.42208984679414
31
0
0
ARC
5
594
100
AcDbEntity
8
0
100
AcDbCircle
10
16.127088602339228
20
140.33319058125434
30
0
40
0.28999999999999904
210
0
220
-0
230
1
100
AcDbArc
50
4.1808920791163899
51
162.148608720433
0
LINE
5
595
100
AcDbEntity
8
0
100
AcDbLine
10
16.48924635891931
20
139.35666742728068
30
0
11
16.416316867800742
21
140.3543332030909
31
0
0
ARC
5
596
100
AcDbEntity
8
0
100
AcDbCircle
10
13.440771768310242
20
139.7283431480798
30
0
40
0.38999999999999585
210
0
220
0
230
1
100
AcDbArc
50
181.13485268662177
51
342.85449107337581
0
LINE
5
597
100
AcDbEntity
8
0
100
AcDbLine
10
13.813439841801557
20
139.61337138197931
30
0
11
14.119895432770683
21
140.60671277848584
31
0
0
ARC
5
598
100
AcDbEntity
8
0
100
AcDbCircle
10
14.397007589982174
20
140.52122095241111
30
0
40
0.2900000000000017
210
0
220
-0
230
1
100
AcDbArc
50
4.8867744320578028
51
162.85449107337536
0
LINE
5
599
100
AcDbEntity
8
0
100
AcDbLine
10
14.771168295237075
20
139.54923356692487
30
0
11
14.685953436041128
21
140.54592516349499
31
0
0
ARC
5
600
100
AcDbEntity
8
0
100
AcDbCircle
10
11.71834613467685
20
139.8833249122398
30
0
40
0.38999999999999263
210
0
220
0
230
1
100
AcDbArc
50
181.84073503956327
51
343.56037342631782
0
LINE
5
601
100
AcDbEntity
8
0
100
AcDbLine
10
12.092402339445387
20
139.7729530151185
30
0
11
12.386597045727685
21
140.76999445560398
31
0
0
ARC
5
602
100
AcDbEntity
8
0
100
AcDbCircle
10
12.664741403119672
20
140.68792304492399
30
0
40
0.2900000000000007
210
0
220
-0
230
1
100
AcDbArc
50
5.5926567850019255
51
163.56037342630859
0
LINE
5
603
100
AcDbEntity
8
0
100
AcDbLine
10
13.050848267023197
20
139.72061895595067
30
0
11
12.953360973641907
21
140.7161850956557
31
0
0
ARC
5
604
100
AcDbEntity
8
0
100
AcDbCircle
10
9.9941418931583854
20
140.01707521747039
30
0
40
0.3899999999999908
210
0
220
0
230
1
100
AcDbArc
50
182.54661739251094
51
344.26625577926018
0
LINE
5
605
100
AcDbEntity
8
0
100
AcDbLine
10
10.36952945503929
20
139.91131994154949
30
0
11
10.651418623829807
21
140.91191009529294
31
0
0
ARC
5
606
100
AcDbEntity
8
0
100
AcDbCircle
10
10.930552964715602
20
140.83327155678768
30
0
40
0.29000000000000303
210
0
220
-0
230
1
100
AcDbArc
50
6.2985391379393922
51
164.26625577926444
0
LINE
5
607
100
AcDbEntity
8
0
100
AcDbLine
10
11.32854738405676
20
139.87079758151808
30
0
11
11.218802453088994
21
140.86508715755963
31
0
0
ARC
5
608
100
AcDbEntity
8
0
100
AcDbCircle
10
8.2684207430786465
20
140.12957376318096
30
0
40
0.38999999999999546
210
0
220
0
230
1
100
AcDbArc
50
183.2524997454542
51
344.97213813219878
0
LINE
5
609
100
AcDbEntity
8
0
100
AcDbLine
10
8.6450826858339838
20
140.02845115997192
30
0
11
8.9146235320594176
21
141.03243815762968
31
0
0
ARC
5
610
100
AcDbEntity
8
0
100
AcDbCircle
10
9.1947054894928755
20
140.95724442703835
30
0
40
0.29000000000000087
210
0
220
-0
230
1
100
AcDbArc
50
7.004421490879948
51
164.97213813219813
0
LINE
5
611
100
AcDbEntity
8
0
100
AcDbLine
10
9.6045270567701007
20
139.99974664955141
30
0
11
9.4825411452762705
21
140.99260874888597
31
0
0
ARC
5
612
100
AcDbEntity
8
0
100
AcDbCircle
10
6.5414446139974549
20
140.22080347436804
30
0
40
0.38999999999999546
210
0
220
0
230
1
100
AcDbArc
50
189.11655384381547
51
345.6780204851438
0
LINE
5
613
100
AcDbEntity
8
0
100
AcDbLine
10
6.9193237679640607
20
140.12432889223641
30
0
11
7.1764753807766777
21
141.13156034889255
31
0
0
ARC
5
614
100
AcDbEntity
8
0
100
AcDbCircle
10
7.4574624439826138
20
141.05982283910234
30
0
40
0.29000000000000159
210
0
220
-0
230
1
100
AcDbArc
50
7.7103038438216451
51
165.67802048513974
0
LINE
5
615
100
AcDbEntity
8
0
100
AcDbLine
10
7.8790489565725448
20
140.10744658819081
30
0
11
7.7448405795462882
21
141.09873051443699
31
0
0
ARC
5
616
100
AcDbEntity
8
0
100
AcDbCircle
10
4.813475625955066
20
140.2907505042071
30
0
40
0.38999999999999363
210
0
220
0
230
1
100
AcDbArc
50
193.57987264808293
51
346.38390283808349
0
LINE
5
617
100
AcDbEntity
8
0
100
AcDbLine
10
5.1925146367217376
20
140.19893858604274
30
0
11
5.4372379857088005
21
141.2092616243381
31
0
0
ARC
5
618
100
AcDbEntity
8
0
100
AcDbCircle
10
5.7190875065352991
20
141.14099122365175
30
0
40
0.2900000000000007
210
0
220
-0
230
1
100
AcDbArc
50
8.4161861967606448
51
166.38390283807755
0
LINE
5
619
100
AcDbEntity
8
0
100
AcDbLine
10
6.1612482626882725
20
140.1339085121943
30
0
11
6.0059645036918337
21
141.1834363470754
31
0
0
ARC
5
620
100
AcDbEntity
8
0
100
AcDbCircle
10
3.0847760496876395
20
140.33940423615394
30
0
40
0.38999999999999224
210
0
220
0
230
1
100
AcDbArc
50
185.37014680427509
51
347.08978519102584
0
LINE
5
621
100
AcDbEntity
8
0
100
AcDbLine
10
3.4649173868003711
20
140.25226891714874
30
0
11
3.697175327908174
21
141.26553019048455
31
0
0
ARC
5
622
100
AcDbEntity
8
0
100
AcDbCircle
10
3.9798445272996918
20
141.20073726096786
30
0
40
0.28999999999999926
210
0
220
-0
230
1
100
AcDbArc
50
9.1220685497014031
51
167.08978519102351
0
LINE
5
623
100
AcDbEntity
8
0
100
AcDbLine
10
4.4343786440526447
20
140.1991782468773
30
0
11
4.2661768439243462
21
141.24671339016942
31
0
0
ARC
5
624
100
AcDbEntity
8
0
100
AcDbCircle
10
1.3556082668198444
20
140.3667572855563
30
0
40
0.38999999999999424
210
0
220
0
230
1
100
AcDbArc
50
186.07602915720935
51
347.79566754396649
0
LINE
5
625
100
AcDbEntity
8
0
100
AcDbLine
10
1.7367942325137931
20
140.28431179108895
30
0
11
1.9565515136853762
21
141.30035750690192
31
0
0
ARC
5
626
100
AcDbEntity
8
0
100
AcDbCircle
10
2.2399974881757472
20
141.2390518828108
30
0
40
0.28999999999999798
210
0
220
-0
230
1
100
AcDbArc
50
9.8279509026446963
51
167.79566754396404
0
LINE
5
627
100
AcDbEntity
8
0
100
AcDbLine
10
2.6964878129868604
20
140.3029043013623
30
0
11
2.5257416648152602
21
141.28855203954396
31
0
0
LINE
5
628
100
AcDbEntity
8
0
100
AcDbLine
10
0.0084074679974788236
20
140.29506234440339
30
0
11
0.21563073452317505
21
141.31373828750807
31
0
0
ARC
5
629
100
AcDbEntity
8
0
100
AcDbCircle
10
0.49981046274748808
20
141.25592927379608
30
0
40
0.28999999999999976
210
0
220
-0
230
1
100
AcDbArc
50
10.533833255581353
51
168.50154989690577
0
LINE
5
630
100
AcDbEntity
8
0
100
AcDbLine
10
0.96779916403844579
20
140.32547654186288
30
0
11
0.78492312921635499
21
141.30894594493839
31
0
0
ARC
5
631
100
AcDbEntity
8
0
100
AcDbCircle
10
-2.1030820767317246
20
140.35754796381229
30
0
40
0.3899999999999928
210
0
220
0
230
1
100
AcDbArc
50
187.4877938631563
51
349.20743224985017
0
LINE
5
632
100
AcDbEntity
8
0
100
AcDbLine
10
-1.719980572602398
20
140.28451894537551
30
0
11
-1.5253227730223906
21
141.30567050137122
31
0
0
ARC
5
633
100
AcDbEntity
8
0
100
AcDbCircle
10
-1.2404524237980201
20
141.25136687227717
30
0
40
0.29000000000000214
210
0
220
-0
230
1
100
AcDbArc
50
11.239715608523595
51
169.20743224984415
0
LINE
5
634
100
AcDbEntity
8
0
100
AcDbLine
10
-0.76103637724480389
20
140.32675021376116
30
0
11
-0.95601454183483703
21
141.30789201097048
31
0
0
ARC
5
635
100
AcDbEntity
8
0
100
AcDbCircle
10
141.17354267870405
20
-4.8495580258907411
30
0
40
0.28999999999999881
210
0
220
-0
230
1
100
AcDbArc
50
40.40475508413828
51
76.736844014558912
0
ARC
5
636
100
AcDbEntity
8
0
100
AcDbCircle
10
-0.37376526995935744
20
140.37280550077466
30
0
40
0.38999999999999035
210
0
220
0
230
1
100
AcDbArc
50
186.78191151015761
51
348.50154989690947
0
ENDSEC
0
SECTION
2
OBJECTS
0
DICTIONARY
5
C
100
AcDbDictionary
3
ACAD_GROUP
350
D
3
ACAD_MLINESTYLE
350
17
0
DICTIONARY
5
D
100
AcDbDictionary
0
DICTIONARY
5
1A
330
C
100
AcDbDictionary
0
DICTIONARY
5
17
100
AcDbDictionary
0
ENDSEC
0
EOF
